<?xml version="1.0" encoding="UTF-8"?>
<!DOCTYPE svg PUBLIC "-//W3C//DTD SVG 1.1//EN" "http://www.w3.org/Graphics/SVG/1.1/DTD/svg11.dtd">
<svg xmlns="http://www.w3.org/2000/svg" version="1.1" width="500px" height="500px" style="shape-rendering:geometricPrecision; text-rendering:geometricPrecision; image-rendering:optimizeQuality; fill-rule:evenodd; clip-rule:evenodd" xmlns:xlink="http://www.w3.org/1999/xlink">
<g><path style="opacity:1" fill="#fefefe" d="M -0.5,-0.5 C 166.167,-0.5 332.833,-0.5 499.5,-0.5C 499.5,166.167 499.5,332.833 499.5,499.5C 332.833,499.5 166.167,499.5 -0.5,499.5C -0.5,332.833 -0.5,166.167 -0.5,-0.5 Z"/></g>
<g><path style="opacity:1" fill="#1e1e1e" d="M 236.5,110.5 C 237.5,110.5 238.5,110.5 239.5,110.5C 239.5,111.5 239.5,112.5 239.5,113.5C 241.604,113.201 243.604,113.534 245.5,114.5C 244.15,115.95 242.484,116.617 240.5,116.5C 240.215,118.288 240.548,119.955 241.5,121.5C 243.565,121.953 245.232,122.953 246.5,124.5C 246.192,125.308 245.692,125.975 245,126.5C 243.89,124.963 242.39,124.297 240.5,124.5C 240.64,126.124 239.973,127.29 238.5,128C 235.653,128.944 233.153,128.444 231,126.5C 230.99,122.347 233.157,120.347 237.5,120.5C 237.384,117.14 237.051,113.807 236.5,110.5 Z"/></g>
<g><path style="opacity:1" fill="#1c1c1c" d="M 281.5,112.5 C 283.176,113.183 283.843,114.517 283.5,116.5C 285.806,116.993 288.139,117.326 290.5,117.5C 290.719,118.675 290.386,119.675 289.5,120.5C 287.271,119.423 284.937,118.756 282.5,118.5C 282.5,119.5 282.5,120.5 282.5,121.5C 284.665,121.116 286.332,121.783 287.5,123.5C 286.167,125.5 284.5,127.167 282.5,128.5C 283.945,130.063 285.611,131.396 287.5,132.5C 286.277,133.614 284.944,133.781 283.5,133C 281.606,131.596 279.606,130.43 277.5,129.5C 274.885,130.269 272.219,130.603 269.5,130.5C 269.5,129.5 269.5,128.5 269.5,127.5C 271.924,127.808 274.257,127.474 276.5,126.5C 275.262,124.302 273.928,122.135 272.5,120C 272.833,119.5 273.167,119 273.5,118.5C 275.516,119.706 277.516,119.706 279.5,118.5C 277.696,117.232 275.696,116.565 273.5,116.5C 273.417,113.61 274.917,112.943 278,114.5C 279.681,114.392 280.848,113.725 281.5,112.5 Z"/></g>
<g><path style="opacity:1" fill="#1d1d1d" d="M 219.5,114.5 C 221.288,114.215 222.955,114.548 224.5,115.5C 221.785,117.264 218.785,118.264 215.5,118.5C 215.5,117.5 215.5,116.5 215.5,115.5C 217.099,115.768 218.432,115.434 219.5,114.5 Z"/></g>
<g><path style="opacity:1" fill="#1b1b1b" d="M 254.5,111.5 C 258.226,111.177 261.893,111.511 265.5,112.5C 263.874,113.99 262.208,115.49 260.5,117C 268.387,118.883 269.387,122.549 263.5,128C 259.624,129.205 256.624,128.205 254.5,125C 257.48,120.275 260.313,120.442 263,125.5C 264.632,123.973 264.799,122.307 263.5,120.5C 259.428,118.901 255.761,119.568 252.5,122.5C 252.167,122 251.833,121.5 251.5,121C 254.288,118.434 257.288,116.101 260.5,114C 257.949,113.998 255.949,113.164 254.5,111.5 Z"/></g>
<g><path style="opacity:1" fill="#161616" d="M 210.5,115.5 C 211.429,118.675 212.262,122.009 213,125.5C 213.333,125.167 213.667,124.833 214,124.5C 214.683,134.827 213.35,135.16 210,125.5C 209.253,122.076 209.42,118.743 210.5,115.5 Z"/></g>
<g><path style="opacity:1" fill="#191919" d="M 194.5,119.5 C 196.552,123.163 199.219,123.496 202.5,120.5C 203.308,120.808 203.975,121.308 204.5,122C 200.708,122.689 198.708,124.856 198.5,128.5C 200.677,128.414 202.677,127.747 204.5,126.5C 205.521,127.002 205.688,127.668 205,128.5C 203.414,129.376 201.914,130.376 200.5,131.5C 200.865,132.902 201.699,133.902 203,134.5C 205.139,133.764 207.139,132.764 209,131.5C 209.692,132.025 210.192,132.692 210.5,133.5C 204.843,136.165 199.177,138.831 193.5,141.5C 192.167,140.5 192.167,139.5 193.5,138.5C 195.711,137.877 197.711,136.877 199.5,135.5C 197.965,131.926 195.799,131.592 193,134.5C 192.833,134 192.667,133.5 192.5,133C 193.833,131.667 195.167,130.333 196.5,129C 195.878,126.52 194.544,126.02 192.5,127.5C 191.571,128.689 191.238,130.022 191.5,131.5C 190.5,131.5 189.5,131.5 188.5,131.5C 188.5,128.5 188.5,125.5 188.5,122.5C 189.5,122.5 190.5,122.5 191.5,122.5C 191.119,124.942 191.786,125.609 193.5,124.5C 193.579,122.872 193.912,121.205 194.5,119.5 Z"/></g>
<g><path style="opacity:1" fill="#f3f3f3" d="M 233.5,123.5 C 234.978,123.238 236.311,123.571 237.5,124.5C 236.833,124.833 236.167,125.167 235.5,125.5C 234.287,125.253 233.62,124.586 233.5,123.5 Z"/></g>
<g><path style="opacity:1" fill="#e6e6e6" d="M 277.5,122.5 C 279.564,122.687 281.564,123.187 283.5,124C 280.482,127.6 278.482,127.1 277.5,122.5 Z"/></g>
<g><path style="opacity:1" fill="#eeeeee" d="M 257.5,123.5 C 259.337,123.639 259.67,124.306 258.5,125.5C 257.702,125.043 257.369,124.376 257.5,123.5 Z"/></g>
<g><path style="opacity:1" fill="#181818" d="M 216.5,124.5 C 217.5,124.5 218.5,124.5 219.5,124.5C 219.5,125.5 219.5,126.5 219.5,127.5C 221.937,127.244 224.271,126.577 226.5,125.5C 227.386,126.325 227.719,127.325 227.5,128.5C 224.148,129.553 220.815,129.553 217.5,128.5C 216.754,127.264 216.421,125.93 216.5,124.5 Z"/></g>
<g><path style="opacity:1" fill="#1d1d1d" d="M 299.5,124.5 C 300.496,124.586 301.329,124.252 302,123.5C 303.494,127.304 304.328,126.971 304.5,122.5C 303.325,122.719 302.325,122.386 301.5,121.5C 301.833,121.167 302.167,120.833 302.5,120.5C 305.51,121.836 308.51,123.169 311.5,124.5C 310.498,126.51 309.498,128.51 308.5,130.5C 306.922,129.36 305.256,128.86 303.5,129C 305.345,130.423 307.345,131.59 309.5,132.5C 308.675,133.386 307.675,133.719 306.5,133.5C 306.439,135.592 305.439,137.092 303.5,138C 305.26,138.965 305.594,140.132 304.5,141.5C 301.794,139.613 299.127,137.946 296.5,136.5C 295.325,136.719 294.325,136.386 293.5,135.5C 295.65,133.851 297.65,132.018 299.5,130C 297.833,129.333 296.167,129.333 294.5,130C 293.9,133.436 291.9,135.269 288.5,135.5C 288.351,134.448 288.517,133.448 289,132.5C 290.367,133.524 291.2,133.024 291.5,131C 290.852,129.56 290.519,128.06 290.5,126.5C 294.274,126.516 295.274,124.85 293.5,121.5C 295.435,120.437 297.101,119.103 298.5,117.5C 298.277,119.738 298.61,122.072 299.5,124.5 Z"/></g>
<g><path style="opacity:1" fill="#e4e4e4" d="M 299.5,124.5 C 299.414,125.496 299.748,126.329 300.5,127C 294.189,127.845 293.856,127.011 299.5,124.5 Z"/></g>
<g><path style="opacity:1" fill="#181818" d="M 178.5,127.5 C 181.58,128.109 183.913,129.776 185.5,132.5C 180.295,133.101 175.628,135.435 171.5,139.5C 171.931,143.312 170.931,143.312 168.5,139.5C 169.833,138.167 169.833,136.833 168.5,135.5C 169.776,134.355 171.109,134.355 172.5,135.5C 173.59,134.609 173.59,133.609 172.5,132.5C 174.401,131.769 176.401,131.769 178.5,132.5C 178.5,130.833 178.5,129.167 178.5,127.5 Z"/></g>
<g><path style="opacity:1" fill="#1d1d1d" d="M 180.5,134.5 C 181.552,134.351 182.552,134.517 183.5,135C 182.446,136.388 182.28,137.888 183,139.5C 184.897,137.335 187.064,136.668 189.5,137.5C 187.807,139.027 185.973,140.36 184,141.5C 183.504,143.035 183.67,144.535 184.5,146C 183.626,149.271 181.959,149.938 179.5,148C 180.973,147.29 181.64,146.124 181.5,144.5C 178.72,144.807 176.22,145.807 174,147.5C 173.5,147.167 173,146.833 172.5,146.5C 174.791,144.877 176.791,143.043 178.5,141C 178.333,140.5 178.167,140 178,139.5C 176.915,140.293 175.748,140.96 174.5,141.5C 173.479,140.998 173.312,140.332 174,139.5C 176.352,137.97 178.519,136.303 180.5,134.5 Z"/></g>
<g><path style="opacity:1" fill="#cfcfcf" d="M 296.5,136.5 C 297.14,134.668 298.14,134.335 299.5,135.5C 298.675,136.386 297.675,136.719 296.5,136.5 Z"/></g>
<g><path style="opacity:1" fill="#252525" d="M 315.5,127.5 C 319.09,127.543 321.757,129.043 323.5,132C 324.833,132.333 326.167,132.667 327.5,133C 328.167,135 329.5,136.333 331.5,137C 331,137.5 330.5,138 330,138.5C 327.506,135.68 326.673,135.847 327.5,139C 325.535,141.36 324.702,143.86 325,146.5C 321.89,145.327 321.723,145.827 324.5,148C 323.251,149.824 322.085,149.657 321,147.5C 318.88,150.08 316.713,150.08 314.5,147.5C 315.391,146.41 316.391,146.41 317.5,147.5C 318.833,146.833 318.833,146.167 317.5,145.5C 315.89,144.448 314.223,144.448 312.5,145.5C 308.093,144.684 307.76,143.518 311.5,142C 307.763,140.332 307.763,138.999 311.5,138C 310.137,135.871 310.471,135.371 312.5,136.5C 313.39,133.443 315.39,131.609 318.5,131C 316.937,130.241 315.937,129.074 315.5,127.5 Z"/></g>
<g><path style="opacity:1" fill="#1654b3" d="M 231.5,145.5 C 277.311,140.666 313.145,156.999 339,194.5C 358.233,228.075 359.567,262.408 343,297.5C 320.155,337.28 285.655,356.113 239.5,354C 202.198,349.012 174.365,330.179 156,297.5C 135.09,250.452 142.59,208.619 178.5,172C 193.859,158.456 211.525,149.623 231.5,145.5 Z"/></g>
<g><path style="opacity:1" fill="#191919" d="M 330.5,144.5 C 334.767,144.203 338.934,144.536 343,145.5C 343.337,148.861 343.837,152.194 344.5,155.5C 344.167,156.167 343.833,156.833 343.5,157.5C 342.252,155.541 340.585,154.041 338.5,153C 337.668,152.312 337.002,152.479 336.5,153.5C 337.833,155.167 339.167,156.833 340.5,158.5C 338.5,159.167 336.5,159.833 334.5,160.5C 335.263,161.719 336.263,162.719 337.5,163.5C 337,163.833 336.5,164.167 336,164.5C 331.524,161.025 327.357,157.192 323.5,153C 324.648,151.274 325.815,151.441 327,153.5C 327.833,151.5 328.667,149.5 329.5,147.5C 331.149,148.648 332.649,149.981 334,151.5C 334.5,151 335,150.5 335.5,150C 333.806,148.065 332.139,146.231 330.5,144.5 Z"/></g>
<g><path style="opacity:1" fill="#dcdcdc" d="M 335.5,147.5 C 336.919,146.549 338.585,146.216 340.5,146.5C 340.66,148.199 340.494,149.866 340,151.5C 338.629,149.959 337.129,148.625 335.5,147.5 Z"/></g>
<g><path style="opacity:1" fill="#161616" d="M 161.5,149.5 C 165.161,149.35 166.161,150.85 164.5,154C 163.207,154.49 161.873,154.657 160.5,154.5C 160.366,152.708 160.699,151.042 161.5,149.5 Z"/></g>
<g><path style="opacity:1" fill="#c9c9c9" d="M 330.5,151.5 C 333.052,153.163 332.886,154.83 330,156.5C 329.616,154.803 329.782,153.137 330.5,151.5 Z"/></g>
<g><path style="opacity:1" fill="#dfdfdf" d="M 333.5,155.5 C 337.416,156.425 337.416,157.425 333.5,158.5C 332.438,157.575 332.438,156.575 333.5,155.5 Z"/></g>
<g><path style="opacity:1" fill="#1d1d1d" d="M 348.5,157.5 C 349.552,157.351 350.552,157.517 351.5,158C 354,161.167 356.5,164.333 359,167.5C 362.333,165.833 363.667,166.833 363,170.5C 358.424,170.661 353.758,171.328 349,172.5C 346.287,172.589 343.787,171.922 341.5,170.5C 340.386,169.277 340.219,167.944 341,166.5C 343.133,168.853 345.8,169.853 349,169.5C 351.47,169.66 353.636,168.993 355.5,167.5C 352.655,164.458 350.321,161.125 348.5,157.5 Z"/></g>
<g><path style="opacity:1" fill="#363636" d="M 148.5,180.5 C 147.195,177.545 145.528,174.878 143.5,172.5C 144.429,171.064 145.595,169.731 147,168.5C 147.333,170.047 146.833,171.38 145.5,172.5C 148.624,173.129 150.958,171.796 152.5,168.5C 151.282,168.891 150.448,168.224 150,166.5C 148.334,167.34 148.167,166.84 149.5,165C 147.667,164.5 146.5,163.333 146,161.5C 145.289,163.367 145.789,164.867 147.5,166C 147,166.5 146.5,167 146,167.5C 145.163,165.993 143.996,165.493 142.5,166C 140.275,167.931 139.608,170.097 140.5,172.5C 138.13,172.017 137.463,170.851 138.5,169C 137.692,168.692 137.025,168.192 136.5,167.5C 139.476,163.356 142.643,159.356 146,155.5C 147.441,156.26 148.941,156.926 150.5,157.5C 150.533,158.989 151.033,160.322 152,161.5C 152.333,161.167 152.667,160.833 153,160.5C 154.349,162.934 156.182,163.768 158.5,163C 158.167,163.333 157.833,163.667 157.5,164C 161.302,166.664 160.802,168.83 156,170.5C 154.742,174.904 152.242,178.237 148.5,180.5 Z"/></g>
<g><path style="opacity:1" fill="#6d6d6d" d="M 143.5,172.5 C 142.652,171.375 141.652,171.375 140.5,172.5C 139.608,170.097 140.275,167.931 142.5,166C 143.996,165.493 145.163,165.993 146,167.5C 146.5,167 147,166.5 147.5,166C 145.789,164.867 145.289,163.367 146,161.5C 146.5,163.333 147.667,164.5 149.5,165C 148.167,166.84 148.334,167.34 150,166.5C 150.448,168.224 151.282,168.891 152.5,168.5C 150.958,171.796 148.624,173.129 145.5,172.5C 146.833,171.38 147.333,170.047 147,168.5C 145.595,169.731 144.429,171.064 143.5,172.5 Z"/></g>
<g><path style="opacity:1" fill="#dadada" d="M 152.5,170.5 C 154.646,170.696 154.812,171.696 153,173.5C 151.272,172.648 151.105,171.648 152.5,170.5 Z"/></g>
<g><path style="opacity:1" fill="#161616" d="M 148.5,180.5 C 148.161,184.528 146.328,187.528 143,189.5C 139.988,188.131 136.821,187.464 133.5,187.5C 133.264,185.027 131.931,183.36 129.5,182.5C 131.216,182.003 132.883,181.669 134.5,181.5C 133.086,180.376 131.586,179.376 130,178.5C 129.312,177.668 129.479,177.002 130.5,176.5C 131.748,177.04 132.915,177.707 134,178.5C 134.29,176.956 134.956,175.623 136,174.5C 138.087,175.794 140.254,176.961 142.5,178C 143.731,179.183 143.731,180.349 142.5,181.5C 141.017,179.254 139.017,178.421 136.5,179C 138.812,180.314 140.812,181.981 142.5,184C 142.333,184.5 142.167,185 142,185.5C 140.333,184.5 138.667,183.5 137,182.5C 136.333,183.167 136.333,183.833 137,184.5C 142.9,189.063 145.733,187.729 145.5,180.5C 146.425,179.438 147.425,179.438 148.5,180.5 Z"/></g>
<g><path style="opacity:1" fill="#161616" d="M 362.5,175.5 C 363.496,175.414 364.329,175.748 365,176.5C 367.421,180.34 369.588,184.34 371.5,188.5C 367.358,191.904 362.691,194.238 357.5,195.5C 356.97,190.607 354.97,186.441 351.5,183C 354.856,179.993 358.523,177.493 362.5,175.5 Z"/></g>
<g><path style="opacity:1" fill="#f1f1f1" d="M 362.5,178.5 C 364.777,180.874 366.444,183.707 367.5,187C 365.608,188.865 363.441,190.365 361,191.5C 358.804,188.952 356.971,186.118 355.5,183C 357.898,181.476 360.231,179.976 362.5,178.5 Z"/></g>
<g><path style="opacity:1" fill="#1c1c1c" d="M 124.5,185.5 C 126.752,186.333 128.919,186.333 131,185.5C 132.041,187.585 133.541,189.252 135.5,190.5C 136.192,189.975 136.692,189.308 137,188.5C 138.375,190.937 138.875,193.603 138.5,196.5C 137.5,196.5 136.5,196.5 135.5,196.5C 135.67,193.509 134.337,191.509 131.5,190.5C 130.152,192.461 128.819,192.628 127.5,191C 127.957,190.586 128.291,190.086 128.5,189.5C 126.625,188.591 125.292,187.257 124.5,185.5 Z"/></g>
<g><path style="opacity:1" fill="#2a2a2a" d="M 368.5,195.5 C 369.5,195.5 370.5,195.5 371.5,195.5C 371.167,197.5 370.833,199.5 370.5,201.5C 369.5,201.5 368.5,201.5 367.5,201.5C 367.517,199.435 367.85,197.435 368.5,195.5 Z"/></g>
<g><path style="opacity:1" fill="#181818" d="M 373.5,197.5 C 374.5,197.5 375.5,197.5 376.5,197.5C 376.884,199.665 376.217,201.332 374.5,202.5C 373.548,200.955 373.215,199.288 373.5,197.5 Z"/></g>
<g><path style="opacity:1" fill="#1a1a1a" d="M 360.5,199.5 C 362.909,201.367 365.242,203.534 367.5,206C 370.382,207.608 373.382,208.941 376.5,210C 374.049,212.845 371.383,212.845 368.5,210C 364.833,207.667 361.833,204.667 359.5,201C 360.056,200.617 360.389,200.117 360.5,199.5 Z"/></g>
<g><path style="opacity:1" fill="#171717" d="M 121.5,195.5 C 124.179,195.673 126.513,196.673 128.5,198.5C 126.92,201.723 126.086,205.056 126,208.5C 127.549,204.01 129.383,199.677 131.5,195.5C 131.833,195.833 132.167,196.167 132.5,196.5C 130.395,200.307 129.228,204.307 129,208.5C 130.339,204.489 132.172,200.822 134.5,197.5C 136.547,198.185 138.214,199.351 139.5,201C 137.895,204.469 136.895,204.302 136.5,200.5C 135.325,200.281 134.325,200.614 133.5,201.5C 132.833,203.167 132.167,204.833 131.5,206.5C 132.5,207.833 133.5,207.833 134.5,206.5C 133.109,204.064 133.609,203.398 136,204.5C 135.427,208.091 134.927,211.758 134.5,215.5C 130.487,215.48 129.82,214.147 132.5,211.5C 132.192,210.692 131.692,210.025 131,209.5C 130.326,210.578 129.326,211.245 128,211.5C 124.991,210.997 122.158,209.997 119.5,208.5C 118.97,206.268 118.637,204.102 118.5,202C 120.454,200.259 121.454,198.092 121.5,195.5 Z"/></g>
<g><path style="opacity:1" fill="#a9a9a9" d="M 123.5,202.5 C 122.442,203.6 121.608,204.934 121,206.5C 120.82,203.691 121.487,201.024 123,198.5C 123.49,199.793 123.657,201.127 123.5,202.5 Z"/></g>
<g><path style="opacity:1" fill="#a2a2a2" d="M 123.5,202.5 C 124.315,201.571 125.148,200.571 126,199.5C 125.9,202.306 125.067,204.972 123.5,207.5C 122.948,205.997 122.948,204.331 123.5,202.5 Z"/></g>
<g><path style="opacity:1" fill="#191919" d="M 377.5,205.5 C 379.656,205.872 379.656,206.872 377.5,208.5C 376.438,207.575 376.438,206.575 377.5,205.5 Z"/></g>
<g><path style="opacity:1" fill="#202020" d="M 379.5,207.5 C 382.012,208.216 382.012,209.216 379.5,210.5C 378.913,209.767 378.913,208.767 379.5,207.5 Z"/></g>
<g><path style="opacity:1" fill="#161616" d="M 114.5,216.5 C 116.681,216.284 118.347,217.117 119.5,219C 119,219.5 118.5,220 118,220.5C 115.929,219.897 114.762,218.564 114.5,216.5 Z"/></g>
<g><path style="opacity:1" fill="#1a1a1a" d="M 120.5,216.5 C 122.062,218.372 123.062,220.705 123.5,223.5C 125.171,221.49 125.838,219.157 125.5,216.5C 126.552,216.351 127.552,216.517 128.5,217C 127.398,219.401 127.231,221.901 128,224.5C 133.734,226.513 133.234,227.513 126.5,227.5C 126.007,229.806 125.674,232.139 125.5,234.5C 124.5,234.5 123.5,234.5 122.5,234.5C 123.449,231.792 123.449,229.126 122.5,226.5C 121.205,228.328 120.205,230.328 119.5,232.5C 118.526,230.257 118.192,227.924 118.5,225.5C 116.023,225.949 114.023,225.283 112.5,223.5C 114.766,222.686 117.1,222.186 119.5,222C 120.406,220.301 120.739,218.467 120.5,216.5 Z"/></g>
<g><path style="opacity:1" fill="#171717" d="M 366.5,218.5 C 367.376,218.369 368.043,218.702 368.5,219.5C 369.015,221.225 369.682,222.892 370.5,224.5C 372.409,223.652 374.409,223.318 376.5,223.5C 376.714,221.856 376.38,220.356 375.5,219C 376.448,218.517 377.448,218.351 378.5,218.5C 378.844,222.228 379.51,225.895 380.5,229.5C 379.675,230.386 378.675,230.719 377.5,230.5C 377.5,229.167 377.5,227.833 377.5,226.5C 375.167,226.5 372.833,226.5 370.5,226.5C 370.808,228.924 370.474,231.257 369.5,233.5C 367.963,228.609 366.963,223.609 366.5,218.5 Z"/></g>
<g><path style="opacity:1" fill="#0e0e0e" d="M 114.5,227.5 C 118.278,228.311 118.111,229.311 114,230.5C 113.5,230.167 113,229.833 112.5,229.5C 113.243,228.818 113.909,228.151 114.5,227.5 Z"/></g>
<g><path style="opacity:1" fill="#141414" d="M 377.5,237.5 C 379.865,239.86 382.532,241.86 385.5,243.5C 386.386,244.325 386.719,245.325 386.5,246.5C 385.5,246.5 384.5,246.5 383.5,246.5C 383.5,248.833 383.5,251.167 383.5,253.5C 376.931,252.776 372.098,249.443 369,243.5C 368.301,241.926 368.635,240.593 370,239.5C 372.333,244.5 376,248.167 381,250.5C 381.814,248.098 381.647,245.765 380.5,243.5C 377.774,242.056 376.774,240.056 377.5,237.5 Z"/></g>
<g><path style="opacity:1" fill="#151515" d="M 120.5,238.5 C 118.967,240.634 118.3,243.134 118.5,246C 118.667,247.833 118.833,249.667 119,251.5C 119.383,252.056 119.883,252.389 120.5,252.5C 120.719,253.675 120.386,254.675 119.5,255.5C 118.306,252.381 116.806,252.048 115,254.5C 114.316,253.216 114.483,252.049 115.5,251C 115,250.5 114.5,250 114,249.5C 113.781,250.938 113.281,252.271 112.5,253.5C 111.526,251.257 111.192,248.924 111.5,246.5C 113.39,246.297 114.89,246.963 116,248.5C 117.388,243.578 116.222,242.578 112.5,245.5C 112.167,245.167 111.833,244.833 111.5,244.5C 112.833,243.167 112.833,241.833 111.5,240.5C 113.003,240.165 114.336,240.165 115.5,240.5C 113.539,239.152 113.372,237.819 115,236.5C 116.402,238.973 117.902,238.973 119.5,236.5C 120.298,236.957 120.631,237.624 120.5,238.5 Z"/></g>
<g><path style="opacity:1" fill="#7c7c7c" d="M 120.5,238.5 C 122.167,239.167 123.833,239.833 125.5,240.5C 123.833,240.5 122.167,240.5 120.5,240.5C 120.5,244.167 120.5,247.833 120.5,251.5C 122.167,251.5 123.833,251.5 125.5,251.5C 124.081,252.451 122.415,252.784 120.5,252.5C 119.883,252.389 119.383,252.056 119,251.5C 118.833,249.667 118.667,247.833 118.5,246C 118.3,243.134 118.967,240.634 120.5,238.5 Z"/></g>
<g><path style="opacity:1" fill="#1c1c1c" d="M 125.5,251.5 C 123.833,251.5 122.167,251.5 120.5,251.5C 120.5,247.833 120.5,244.167 120.5,240.5C 122.167,240.5 123.833,240.5 125.5,240.5C 126.15,240.804 126.817,241.137 127.5,241.5C 128.167,239.833 128.833,238.167 129.5,236.5C 130.81,243.056 130.81,249.556 129.5,256C 131.68,258.418 132.013,261.084 130.5,264C 128.302,264.373 126.135,264.873 124,265.5C 123.5,265.167 123,264.833 122.5,264.5C 124.922,262.952 124.922,261.286 122.5,259.5C 122.808,258.692 123.308,258.025 124,257.5C 124.572,260.707 126.405,262.374 129.5,262.5C 129.5,261.167 129.5,259.833 129.5,258.5C 128.5,258.5 127.5,258.5 126.5,258.5C 127.129,256.535 127.796,254.535 128.5,252.5C 128.632,249.019 127.632,248.685 125.5,251.5 Z"/></g>
<g><path style="opacity:1" fill="#bfbfbf" d="M 125.5,243.5 C 129.173,244.708 129.34,246.374 126,248.5C 125.506,246.866 125.34,245.199 125.5,243.5 Z"/></g>
<g><path style="opacity:1" fill="#c2c2c2" d="M 121.5,242.5 C 122.725,243.152 123.392,244.319 123.5,246C 123.167,247.167 122.833,248.333 122.5,249.5C 121.526,247.257 121.192,244.924 121.5,242.5 Z"/></g>
<g><path style="opacity:1" fill="#202020" d="M 117.5,257.5 C 121.42,258.89 122.42,261.556 120.5,265.5C 118.167,266.167 115.833,266.833 113.5,267.5C 112.378,265.956 112.711,264.623 114.5,263.5C 113.572,262.232 113.405,260.899 114,259.5C 117.859,264.848 119.025,264.182 117.5,257.5 Z"/></g>
<g><path style="opacity:1" fill="#1b1b1b" d="M 367.5,261.5 C 373.38,263.065 379.38,263.732 385.5,263.5C 385.5,264.833 385.5,266.167 385.5,267.5C 383.105,266.637 380.771,266.637 378.5,267.5C 377.499,270.173 375.999,272.507 374,274.5C 373.308,273.975 372.808,273.308 372.5,272.5C 374.02,270.338 375.02,268.005 375.5,265.5C 372.794,265.425 370.127,265.092 367.5,264.5C 367.5,263.5 367.5,262.5 367.5,261.5 Z"/></g>
<g><path style="opacity:1" fill="#262626" d="M 124.5,266.5 C 127.119,266.232 129.619,266.565 132,267.5C 132.373,270.858 131.539,271.192 129.5,268.5C 128.614,269.325 128.281,270.325 128.5,271.5C 130.167,271.5 131.833,271.5 133.5,271.5C 133.5,272.5 133.5,273.5 133.5,274.5C 129.466,274.505 125.466,274.838 121.5,275.5C 121.425,272.794 121.092,270.127 120.5,267.5C 122.099,267.768 123.432,267.434 124.5,266.5 Z"/></g>
<g><path style="opacity:1" fill="#1c1c1c" d="M 116.5,267.5 C 117.5,267.5 118.5,267.5 119.5,267.5C 119.823,270.962 119.823,274.295 119.5,277.5C 117.821,275.896 115.821,275.229 113.5,275.5C 113.281,274.325 113.614,273.325 114.5,272.5C 115.609,273.59 116.609,273.59 117.5,272.5C 116.5,271.833 115.5,271.167 114.5,270.5C 115.193,269.482 115.859,268.482 116.5,267.5 Z"/></g>
<g><path style="opacity:1" fill="#1d58b4" d="M 136.5,285.5 C 139.128,286.625 139.961,288.625 139,291.5C 136.833,294.333 134.667,297.167 132.5,300C 135.951,299.869 139.118,298.702 142,296.5C 142.5,297.5 143,298.5 143.5,299.5C 138.878,301.43 134.212,303.263 129.5,305C 126.283,305.824 124.783,304.657 125,301.5C 127.833,298 130.667,294.5 133.5,291C 129.373,291.47 125.539,292.97 122,295.5C 121.691,294.234 121.191,293.067 120.5,292C 126.214,290.491 131.548,288.325 136.5,285.5 Z"/></g>
<g><path style="opacity:1" fill="#1f59b5" d="M 365.5,286.5 C 374.207,286.037 377.707,290.037 376,298.5C 375.457,300.631 374.624,302.631 373.5,304.5C 368.61,301.979 363.61,299.645 358.5,297.5C 359.612,292.916 361.945,289.25 365.5,286.5 Z"/></g>
<g><path style="opacity:1" fill="#eff3fa" d="M 363.5,291.5 C 367.131,291.16 370.464,291.994 373.5,294C 374.38,295.356 374.714,296.856 374.5,298.5C 370.687,297.84 367.021,296.674 363.5,295C 362.316,293.855 362.316,292.688 363.5,291.5 Z"/></g>
<g><path style="opacity:1" fill="#e3ebf6" d="M 235.5,150.5 C 292.961,147.831 330.127,173.831 347,228.5C 353.702,271.424 339.868,305.924 305.5,332C 268.134,353.974 230.801,353.974 193.5,332C 159.132,305.924 145.298,271.424 152,228.5C 163.98,185.348 191.813,159.348 235.5,150.5 Z"/></g>
<g><path style="opacity:1" fill="#074faf" d="M 189.5,325.5 C 168.791,309.233 156.625,287.9 153,261.5C 149.851,211.948 171.017,177.448 216.5,158C 257.729,145.348 293.229,154.515 323,185.5C 349.822,219.906 353.822,256.906 335,296.5C 312.591,333.288 279.758,349.788 236.5,346C 218.788,343.498 203.121,336.665 189.5,325.5 Z"/></g>
<g><path style="opacity:1" fill="#71887c" d="M 317.5,286.5 C 317.875,289.397 317.375,292.063 316,294.5C 315.536,293.906 315.369,293.239 315.5,292.5C 316.167,290.5 316.833,288.5 317.5,286.5 Z"/></g>
<g><path style="opacity:1" fill="#e8edee" d="M 267.5,283.5 C 269.543,284.579 270.876,286.246 271.5,288.5C 268.246,288.794 265.579,290.127 263.5,292.5C 261.262,290.884 258.929,289.551 256.5,288.5C 260.852,288.154 264.519,286.488 267.5,283.5 Z"/></g>
<g><path style="opacity:1" fill="#f0f4f9" d="M 224.5,280.5 C 228.277,282.722 232.277,284.389 236.5,285.5C 236.5,287.167 236.5,288.833 236.5,290.5C 232.736,289.452 229.069,288.119 225.5,286.5C 224.659,284.621 224.325,282.621 224.5,280.5 Z"/></g>
<g><path style="opacity:1" fill="#f3f5f9" d="M 284.5,276.5 C 285.451,277.919 285.784,279.585 285.5,281.5C 281.267,283.451 276.934,285.117 272.5,286.5C 272.5,285.167 272.5,283.833 272.5,282.5C 276.5,280.5 280.5,278.5 284.5,276.5 Z"/></g>
<g><path style="opacity:1" fill="#f6d639" d="M 284.5,276.5 C 284.5,276.167 284.5,275.833 284.5,275.5C 287.902,275.342 291.236,275.676 294.5,276.5C 302.093,278.043 309.76,279.043 317.5,279.5C 317.5,281.833 317.5,284.167 317.5,286.5C 316.833,288.5 316.167,290.5 315.5,292.5C 311.759,285.367 305.759,282.367 297.5,283.5C 296.947,288.482 296.613,293.482 296.5,298.5C 300.516,299.1 304.016,298.1 307,295.5C 306.675,300.825 306.008,306.159 305,311.5C 302.333,308.082 298.833,306.082 294.5,305.5C 293.167,311.5 293.167,317.5 294.5,323.5C 288.393,323.149 282.393,322.149 276.5,320.5C 279.059,318.048 280.559,315.048 281,311.5C 282.61,301.506 284.11,291.506 285.5,281.5C 285.784,279.585 285.451,277.919 284.5,276.5 Z"/></g>
<g><path style="opacity:1" fill="#f7d738" d="M 225.5,273.5 C 225.5,273.833 225.5,274.167 225.5,274.5C 224.659,276.379 224.325,278.379 224.5,280.5C 224.325,282.621 224.659,284.621 225.5,286.5C 227.114,297.801 228.448,309.134 229.5,320.5C 225.401,320.858 221.401,320.858 217.5,320.5C 209.81,311.311 202.31,301.978 195,292.5C 196.083,300.423 197.083,308.423 198,316.5C 198.795,318.901 199.962,321.068 201.5,323C 197.667,324.318 193.667,325.151 189.5,325.5C 190.949,323.075 191.615,320.409 191.5,317.5C 190.177,306.071 188.344,294.737 186,283.5C 185.5,281.667 184.333,280.5 182.5,280C 187.94,277.951 193.606,277.284 199.5,278C 206.333,286.167 213.167,294.333 220,302.5C 219.868,295.74 219.034,289.074 217.5,282.5C 216.921,279.669 215.588,277.336 213.5,275.5C 217.236,274.011 221.236,273.344 225.5,273.5 Z"/></g>
<g><path style="opacity:1" fill="#f8d839" d="M 248.5,272.5 C 250.833,272.5 253.167,272.5 255.5,272.5C 256.833,272.5 258.167,272.5 259.5,272.5C 263.276,274.636 267.276,274.969 271.5,273.5C 271.19,276.713 271.523,279.713 272.5,282.5C 272.5,283.833 272.5,285.167 272.5,286.5C 272.672,287.492 272.338,288.158 271.5,288.5C 270.876,286.246 269.543,284.579 267.5,283.5C 262.981,279.649 257.981,278.316 252.5,279.5C 250.516,279.484 249.516,280.484 249.5,282.5C 249.754,284.417 250.754,285.751 252.5,286.5C 253.605,287.6 254.938,288.267 256.5,288.5C 258.929,289.551 261.262,290.884 263.5,292.5C 276.431,299.184 277.764,307.684 267.5,318C 259.433,321.101 251.266,321.268 243,318.5C 240.966,318.354 239.299,319.02 238,320.5C 237.333,315.167 237.333,309.833 238,304.5C 242.846,311.896 249.679,315.062 258.5,314C 262.405,311.525 262.405,308.858 258.5,306C 252.178,303.174 246.178,299.841 240.5,296C 239.035,294.226 237.702,292.392 236.5,290.5C 236.5,288.833 236.5,287.167 236.5,285.5C 238.384,279.28 242.384,274.947 248.5,272.5 Z"/></g>
<g><path style="opacity:1" fill="#1252af" d="M 267.5,283.5 C 264.519,286.488 260.852,288.154 256.5,288.5C 254.938,288.267 253.605,287.6 252.5,286.5C 252.5,284.167 252.5,281.833 252.5,279.5C 257.981,278.316 262.981,279.649 267.5,283.5 Z"/></g>
<g><path style="opacity:1" fill="#fffefb" d="M 252.5,279.5 C 252.5,281.833 252.5,284.167 252.5,286.5C 250.754,285.751 249.754,284.417 249.5,282.5C 249.516,280.484 250.516,279.484 252.5,279.5 Z"/></g>
<g><path style="opacity:1" fill="#1954af" d="M 284.5,275.5 C 284.5,275.833 284.5,276.167 284.5,276.5C 280.5,278.5 276.5,280.5 272.5,282.5C 271.523,279.713 271.19,276.713 271.5,273.5C 277.53,270.403 283.696,267.403 290,264.5C 290.498,267.817 290.665,271.15 290.5,274.5C 287.659,274.153 285.659,274.487 284.5,275.5 Z"/></g>
<g><path style="opacity:1" fill="#1e56b1" d="M 248.5,272.5 C 242.384,274.947 238.384,279.28 236.5,285.5C 232.277,284.389 228.277,282.722 224.5,280.5C 224.325,278.379 224.659,276.379 225.5,274.5C 226.117,274.389 226.617,274.056 227,273.5C 230.043,275.289 233.209,276.456 236.5,277C 240.333,271.833 244.167,266.667 248,261.5C 248.499,265.152 248.665,268.818 248.5,272.5 Z"/></g>
<g><path style="opacity:1" fill="#f1f5f9" d="M 278.5,199.5 C 287.689,203.927 297.023,208.093 306.5,212C 308.303,212.637 309.636,213.803 310.5,215.5C 305.5,222.167 300.5,228.833 295.5,235.5C 300.211,241.759 304.545,248.259 308.5,255C 304.361,258.055 299.861,260.555 295,262.5C 294.501,267.155 294.334,271.821 294.5,276.5C 291.236,275.676 287.902,275.342 284.5,275.5C 285.659,274.487 287.659,274.153 290.5,274.5C 290.665,271.15 290.498,267.817 290,264.5C 283.696,267.403 277.53,270.403 271.5,273.5C 267.276,274.969 263.276,274.636 259.5,272.5C 257.593,269.025 255.426,265.691 253,262.5C 252.502,265.482 252.335,268.482 252.5,271.5C 253.791,271.263 254.791,271.596 255.5,272.5C 253.167,272.5 250.833,272.5 248.5,272.5C 248.665,268.818 248.499,265.152 248,261.5C 244.167,266.667 240.333,271.833 236.5,277C 233.209,276.456 230.043,275.289 227,273.5C 226.617,274.056 226.117,274.389 225.5,274.5C 225.5,274.167 225.5,273.833 225.5,273.5C 220.358,270.661 215.025,267.994 209.5,265.5C 208.348,268.106 208.182,270.773 209,273.5C 210.33,274.582 211.83,275.249 213.5,275.5C 215.588,277.336 216.921,279.669 217.5,282.5C 212.755,280.64 208.255,278.307 204,275.5C 203.828,271.129 203.328,266.796 202.5,262.5C 198.273,260.593 194.106,258.593 190,256.5C 189.333,255.167 189.333,253.833 190,252.5C 194.692,246.641 199.192,240.641 203.5,234.5C 198.789,228.241 194.455,221.741 190.5,215C 200.066,209.384 210.066,204.551 220.5,200.5C 221.234,201.708 221.567,203.041 221.5,204.5C 213.04,208.23 204.707,212.23 196.5,216.5C 199.812,221.804 203.479,226.804 207.5,231.5C 216.167,227.5 224.833,223.5 233.5,219.5C 234.298,219.043 234.631,218.376 234.5,217.5C 236.5,218.833 238.167,220.5 239.5,222.5C 230.251,226.124 221.251,230.291 212.5,235C 225.209,240.737 237.876,246.57 250.5,252.5C 262.509,246.829 274.509,241.162 286.5,235.5C 277.807,230.717 268.807,226.717 259.5,223.5C 260.5,221.833 261.833,220.5 263.5,219.5C 272.807,223.819 282.14,228.153 291.5,232.5C 295.857,227.626 299.857,222.459 303.5,217C 295.036,211.769 286.036,207.603 276.5,204.5C 277.441,202.95 278.107,201.284 278.5,199.5 Z"/></g>
<g><path style="opacity:1" fill="#1553b1" d="M 225.5,273.5 C 221.236,273.344 217.236,274.011 213.5,275.5C 211.83,275.249 210.33,274.582 209,273.5C 208.182,270.773 208.348,268.106 209.5,265.5C 215.025,267.994 220.358,270.661 225.5,273.5 Z"/></g>
<g><path style="opacity:1" fill="#1f5ab4" d="M 259.5,272.5 C 258.167,272.5 256.833,272.5 255.5,272.5C 254.791,271.596 253.791,271.263 252.5,271.5C 252.335,268.482 252.502,265.482 253,262.5C 255.426,265.691 257.593,269.025 259.5,272.5 Z"/></g>
<g><path style="opacity:1" fill="#0950b1" d="M 290.5,238.5 C 295.121,242.811 299.121,247.811 302.5,253.5C 289.933,259.367 277.433,265.367 265,271.5C 260.697,266.582 257.364,261.248 255,255.5C 266.848,249.658 278.682,243.991 290.5,238.5 Z"/></g>
<g><path style="opacity:1" fill="#0950b1" d="M 206.5,237.5 C 219.715,243.357 232.882,249.357 246,255.5C 246.667,256.167 246.667,256.833 246,257.5C 242.379,261.91 238.879,266.41 235.5,271C 234.167,271.667 232.833,271.667 231.5,271C 219.286,265.06 206.953,259.393 194.5,254C 198.718,248.622 202.718,243.122 206.5,237.5 Z"/></g>
<g><path style="opacity:1" fill="#0950b0" d="M 239.5,222.5 C 242.845,225.678 246.345,228.678 250,231.5C 253.321,229.012 256.488,226.345 259.5,223.5C 268.807,226.717 277.807,230.717 286.5,235.5C 274.509,241.162 262.509,246.829 250.5,252.5C 237.876,246.57 225.209,240.737 212.5,235C 221.251,230.291 230.251,226.124 239.5,222.5 Z"/></g>
<g><path style="opacity:1" fill="#0b50b0" d="M 221.5,204.5 C 225.5,209.167 229.833,213.5 234.5,217.5C 234.631,218.376 234.298,219.043 233.5,219.5C 224.833,223.5 216.167,227.5 207.5,231.5C 203.479,226.804 199.812,221.804 196.5,216.5C 204.707,212.23 213.04,208.23 221.5,204.5 Z"/></g>
<g><path style="opacity:1" fill="#0950b0" d="M 276.5,204.5 C 286.036,207.603 295.036,211.769 303.5,217C 299.857,222.459 295.857,227.626 291.5,232.5C 282.14,228.153 272.807,223.819 263.5,219.5C 268.229,214.776 272.563,209.776 276.5,204.5 Z"/></g>
<g><path style="opacity:1" fill="#fbda37" d="M 278.5,199.5 C 278.107,201.284 277.441,202.95 276.5,204.5C 272.563,209.776 268.229,214.776 263.5,219.5C 261.833,220.5 260.5,221.833 259.5,223.5C 256.488,226.345 253.321,229.012 250,231.5C 246.345,228.678 242.845,225.678 239.5,222.5C 238.167,220.5 236.5,218.833 234.5,217.5C 229.833,213.5 225.5,209.167 221.5,204.5C 221.567,203.041 221.234,201.708 220.5,200.5C 221.289,184.885 229.289,179.052 244.5,183C 246.609,184.141 248.442,185.641 250,187.5C 258.962,179.261 267.628,179.595 276,188.5C 278.078,191.87 278.911,195.537 278.5,199.5 Z"/></g>
<g><path style="opacity:1" fill="#fffcf1" d="M 244.5,190.5 C 259.317,189.476 265.484,196.143 263,210.5C 257.006,219.939 249.173,221.772 239.5,216C 235.681,210.795 234.514,204.962 236,198.5C 238.074,194.923 240.907,192.256 244.5,190.5 Z"/></g>
<g><path style="opacity:1" fill="#ffdd3f" d="M 246.5,192.5 C 259.957,193.445 264.123,200.112 259,212.5C 252.667,217.833 246.333,217.833 240,212.5C 235.12,203.462 237.287,196.796 246.5,192.5 Z"/></g>
<g><path style="opacity:1" fill="#fffae8" d="M 245.5,197.5 C 246.815,198.476 248.148,199.476 249.5,200.5C 250.814,199.687 251.981,198.687 253,197.5C 254.951,199.137 254.784,200.637 252.5,202C 253.973,202.71 254.64,203.876 254.5,205.5C 253.448,205.351 252.448,205.517 251.5,206C 255.723,208.244 255.389,209.41 250.5,209.5C 249.833,214.833 249.167,214.833 248.5,209.5C 243.611,209.41 243.277,208.244 247.5,206C 246.552,205.517 245.552,205.351 244.5,205.5C 244.36,203.876 245.027,202.71 246.5,202C 244.452,200.774 244.119,199.274 245.5,197.5 Z"/></g>
<g><path style="opacity:1" fill="#1555b3" d="M 356.5,301.5 C 361.055,304.029 365.555,306.696 370,309.5C 370.684,310.784 370.517,311.951 369.5,313C 354.388,312.087 353.388,314.087 366.5,319C 365.953,319.925 365.287,320.758 364.5,321.5C 359.833,318.833 355.167,316.167 350.5,313.5C 351.04,312.252 351.707,311.085 352.5,310C 356.5,309.667 360.5,309.333 364.5,309C 361.661,307.08 358.661,305.413 355.5,304C 356.252,303.329 356.586,302.496 356.5,301.5 Z"/></g>
<g><path style="opacity:1" fill="#265bb6" d="M 136.5,305.5 C 147.684,306.042 150.684,311.209 145.5,321C 136.571,324.697 131.738,321.864 131,312.5C 131.967,309.379 133.8,307.046 136.5,305.5 Z"/></g>
<g><path style="opacity:1" fill="#f0f4fa" d="M 137.5,310.5 C 140.167,310.5 142.833,310.5 145.5,310.5C 144.669,316.928 141.002,319.428 134.5,318C 133.978,317.439 133.645,316.772 133.5,316C 134.65,314.019 135.984,312.186 137.5,310.5 Z"/></g>
<g><path style="opacity:1" fill="#215ab5" d="M 149.5,318.5 C 154.035,321.035 157.702,324.701 160.5,329.5C 159.758,330.287 158.925,330.953 158,331.5C 157.804,329.714 156.971,328.381 155.5,327.5C 151.267,329.692 147.767,332.692 145,336.5C 143.471,335.271 142.304,333.771 141.5,332C 145.167,329.167 148.833,326.333 152.5,323.5C 151.636,321.803 150.303,320.637 148.5,320C 149.056,319.617 149.389,319.117 149.5,318.5 Z"/></g>
<g><path style="opacity:1" fill="#295eb7" d="M 348.5,316.5 C 352.131,319.629 355.631,322.963 359,326.5C 359.297,333.203 356.13,336.037 349.5,335C 346.328,332.581 342.994,330.414 339.5,328.5C 340.861,326.972 342.028,325.305 343,323.5C 344.597,326.219 346.763,328.386 349.5,330C 354.231,332.812 356.398,331.645 356,326.5C 353.106,323.639 349.939,321.139 346.5,319C 347.381,318.292 348.047,317.458 348.5,316.5 Z"/></g>
<g><path style="opacity:1" fill="#1a56b4" d="M 157.5,333.5 C 169.635,333.456 172.635,338.623 166.5,349C 156.907,352.116 152.407,348.616 153,338.5C 154.707,336.963 156.207,335.296 157.5,333.5 Z"/></g>
<g><path style="opacity:1" fill="#1a56b4" d="M 334.5,333.5 C 345.908,334.039 348.908,339.206 343.5,349C 333.426,352.553 328.926,349.053 330,338.5C 331.025,336.313 332.525,334.646 334.5,333.5 Z"/></g>
<g><path style="opacity:1" fill="#eef2f9" d="M 161.5,336.5 C 166.631,336.606 167.797,338.939 165,343.5C 159.821,349.545 157.154,348.878 157,341.5C 158.707,339.963 160.207,338.296 161.5,336.5 Z"/></g>
<g><path style="opacity:1" fill="#e9eff8" d="M 333.5,336.5 C 340.614,336.767 343.281,340.267 341.5,347C 334.827,346.499 332.16,342.999 333.5,336.5 Z"/></g>
<g><path style="opacity:1" fill="#1d58b4" d="M 322.5,341.5 C 324.196,341.685 325.529,342.519 326.5,344C 319.273,344.814 318.106,347.648 323,352.5C 324.101,350.606 325.434,349.939 327,350.5C 327.374,351.416 327.874,352.25 328.5,353C 326.956,353.29 325.623,353.956 324.5,355C 325.833,357 327.5,358.667 329.5,360C 327.391,361.141 325.558,362.641 324,364.5C 321.704,358.534 318.204,353.367 313.5,349C 316.69,346.636 319.69,344.136 322.5,341.5 Z"/></g>
<g><path style="opacity:1" fill="#2059b5" d="M 183.5,349.5 C 185.199,349.34 186.866,349.506 188.5,350C 190.833,351.667 193.167,353.333 195.5,355C 194.54,356.419 193.707,357.919 193,359.5C 192.588,355.993 190.755,353.66 187.5,352.5C 186.386,353.723 186.219,355.056 187,356.5C 193.379,366.449 190.879,369.949 179.5,367C 175.068,364.692 174.568,361.859 178,358.5C 178.31,362.641 180.477,364.975 184.5,365.5C 183.492,361.797 182.158,358.13 180.5,354.5C 181.092,352.577 182.092,350.911 183.5,349.5 Z"/></g>
<g><path style="opacity:1" fill="#255bb6" d="M 195.5,357.5 C 200.575,358.526 205.242,360.526 209.5,363.5C 208.679,367.082 207.679,367.248 206.5,364C 205.216,363.316 204.049,363.483 203,364.5C 201.216,368.401 199.716,372.401 198.5,376.5C 196.833,375.667 195.167,374.833 193.5,374C 195.901,370.031 197.901,365.865 199.5,361.5C 197.833,360.833 196.167,360.167 194.5,359.5C 194.863,358.817 195.196,358.15 195.5,357.5 Z"/></g>
<g><path style="opacity:1" fill="#1a57b4" d="M 301.5,357.5 C 302.837,358.315 303.837,359.482 304.5,361C 302.231,360.626 299.898,360.626 297.5,361C 296.663,362.011 296.33,363.178 296.5,364.5C 299.909,364.249 303.242,364.583 306.5,365.5C 309.335,368.671 309.002,371.504 305.5,374C 303.222,374.986 300.889,375.82 298.5,376.5C 297.112,375.409 296.612,374.076 297,372.5C 298.726,373.576 300.559,373.743 302.5,373C 303.956,372.577 304.456,371.744 304,370.5C 301.26,369.718 298.426,369.218 295.5,369C 291.402,365.351 291.735,362.018 296.5,359C 298.382,358.802 300.048,358.302 301.5,357.5 Z"/></g>
<g><path style="opacity:1" fill="#1f58b4" d="M 211.5,363.5 C 213.312,363.771 214.978,364.438 216.5,365.5C 214.192,369.85 213.525,374.35 214.5,379C 215.833,379.667 217.167,379.667 218.5,379C 220.445,375.009 222.112,370.843 223.5,366.5C 224.308,366.808 224.975,367.308 225.5,368C 224.44,370.737 223.606,373.57 223,376.5C 219.468,382.29 215.135,382.957 210,378.5C 209.294,373.353 209.794,368.353 211.5,363.5 Z"/></g>
<g><path style="opacity:1" fill="#285db7" d="M 287.5,362.5 C 289.59,362.45 290.923,363.45 291.5,365.5C 290.113,365.807 288.446,365.807 286.5,365.5C 287.13,370.222 288.463,374.722 290.5,379C 288.833,379.833 287.167,380.667 285.5,381.5C 284.746,377.059 283.579,372.725 282,368.5C 279.909,367.5 278.243,368.167 277,370.5C 276.581,369.328 275.915,368.328 275,367.5C 275.034,372.851 275.534,378.184 276.5,383.5C 274.801,383.66 273.134,383.494 271.5,383C 269.707,380.205 267.54,377.705 265,375.5C 264.064,378.792 264.564,381.792 266.5,384.5C 265.311,385.429 263.978,385.762 262.5,385.5C 262.733,379.726 261.733,374.226 259.5,369C 261.5,368.333 263.5,368.333 265.5,369C 268.04,371.205 270.207,373.705 272,376.5C 272.936,373.208 272.436,370.208 270.5,367.5C 276.448,366.402 282.115,364.736 287.5,362.5 Z"/></g>
<g><path style="opacity:1" fill="#265bb6" d="M 228.5,367.5 C 233.731,367.37 238.231,369.037 242,372.5C 243.189,376.709 242.356,380.376 239.5,383.5C 235.185,384.775 230.851,384.775 226.5,383.5C 228.088,378.295 228.754,372.961 228.5,367.5 Z"/></g>
<g><path style="opacity:1" fill="#1b56b4" d="M 245.5,370.5 C 249.298,369.517 253.298,369.183 257.5,369.5C 257.719,370.675 257.386,371.675 256.5,372.5C 254.591,371.652 252.591,371.318 250.5,371.5C 250.5,373.167 250.5,374.833 250.5,376.5C 251.822,376.67 252.989,376.337 254,375.5C 254.49,376.793 254.657,378.127 254.5,379.5C 253.5,379.5 252.5,379.5 251.5,379.5C 251.5,380.833 251.5,382.167 251.5,383.5C 254.044,383.896 256.211,383.229 258,381.5C 258.49,382.793 258.657,384.127 258.5,385.5C 254.5,385.5 250.5,385.5 246.5,385.5C 246.821,380.305 246.487,375.305 245.5,370.5 Z"/></g>
<g><path style="opacity:1" fill="#f6f8fc" d="M 233.5,370.5 C 236.95,370.573 238.283,372.406 237.5,376C 238.215,380.109 236.548,382.276 232.5,382.5C 232.646,378.481 232.979,374.481 233.5,370.5 Z"/></g>
</svg>
