<?xml version="1.0" standalone="no"?>
<!DOCTYPE svg PUBLIC "-//W3C//DTD SVG 20010904//EN"
 "http://www.w3.org/TR/2001/REC-SVG-20010904/DTD/svg10.dtd">
<svg version="1.0" xmlns="http://www.w3.org/2000/svg"
 width="1024.000000pt" height="1024.000000pt" viewBox="0 0 1024.000000 1024.000000"
 preserveAspectRatio="xMidYMid meet">

<g transform="translate(0.000000,1024.000000) scale(0.100000,-0.100000)"
fill="#000000" stroke="none">
<path d="M9320 10220 c0 -19 7 -20 140 -20 133 0 140 -1 140 -20 0 -19 7 -20
140 -20 l140 0 0 -40 c0 -33 3 -40 20 -40 17 0 20 -7 20 -40 l0 -40 40 0 40 0
0 -40 0 -40 -120 0 -120 0 0 -60 0 -60 80 0 c73 0 80 -2 80 -20 0 -13 7 -20
20 -20 13 0 20 -7 20 -20 0 -18 7 -20 60 -20 53 0 60 -2 60 -20 0 -17 7 -20
40 -20 40 0 40 0 40 39 0 37 -2 40 -32 43 l-33 4 29 9 c21 5 31 5 34 -3 2 -7
21 -12 43 -12 l39 0 0 240 0 240 -460 0 c-453 0 -460 0 -460 -20z m670 -400
c0 -16 -7 -20 -35 -20 -28 0 -35 4 -35 20 0 16 7 20 35 20 28 0 35 -4 35 -20z"/>
<path d="M10200 9680 c0 -33 -3 -40 -20 -40 -17 0 -20 -7 -20 -40 0 -33 -3
-40 -20 -40 -13 0 -20 -7 -20 -20 0 -13 -7 -20 -20 -20 -13 0 -20 -7 -20 -20
0 -13 7 -20 20 -20 13 0 20 -7 20 -20 0 -13 7 -20 20 -20 13 0 20 -7 20 -20 0
-17 7 -20 40 -20 l40 0 0 160 c0 153 -1 160 -20 160 -17 0 -20 -7 -20 -40z"/>
<path d="M9880 9560 l0 -40 60 0 60 0 0 40 0 40 -60 0 -60 0 0 -40z"/>
<path d="M10180 9220 c0 -11 7 -20 15 -20 8 0 15 9 15 20 0 11 -7 20 -15 20
-8 0 -15 -9 -15 -20z"/>
<path d="M9960 9140 c0 -13 7 -20 20 -20 13 0 20 7 20 20 0 13 -7 20 -20 20
-13 0 -20 -7 -20 -20z"/>
<path d="M2544 8569 c-418 -25 -814 -230 -1049 -544 -127 -170 -216 -423 -229
-655 -4 -52 -11 -1015 -17 -2140 -12 -2237 -14 -2117 45 -2321 95 -328 342
-622 631 -752 98 -44 304 -104 400 -117 87 -12 270 -15 570 -11 168 3 208 6
148 10 -45 4 -85 10 -88 13 -10 9 14 48 29 48 7 0 30 13 52 30 21 16 45 30 52
30 6 0 12 4 12 8 0 5 16 14 35 22 20 8 42 22 51 31 10 11 26 16 47 13 55 -7
107 -26 100 -37 -4 -6 0 -8 10 -4 9 3 32 -2 49 -13 18 -10 54 -22 80 -25 32
-5 59 -17 80 -36 18 -16 40 -30 48 -31 8 -1 22 -2 30 -4 8 -1 21 -2 28 -3 20
-2 13 -15 -15 -28 -15 -7 -61 -14 -102 -15 -313 -8 660 -13 2294 -12 1492 0
1956 3 2010 13 88 15 332 95 406 131 112 57 253 153 335 228 165 151 310 406
361 637 25 115 28 397 21 1960 -10 1886 -19 2394 -47 2525 -27 126 -73 258
-122 349 -50 92 -161 240 -231 307 -56 53 -209 164 -315 228 -125 74 -374 147
-556 162 -111 9 -5003 11 -5153 3z m2641 -66 c32 -79 20 -117 -35 -111 -45 4
-48 23 -13 82 31 51 37 55 48 29z m-2808 -203 c15 -49 30 -90 33 -90 8 0 50
97 50 115 0 25 19 55 35 55 8 0 17 -15 21 -37 7 -39 44 -113 56 -113 4 0 10
26 13 58 9 77 14 92 31 92 18 0 17 -4 -1 -95 -19 -90 -41 -145 -58 -145 -8 0
-18 24 -26 61 -6 33 -17 71 -23 84 -10 22 -13 18 -49 -56 -22 -44 -39 -88 -39
-97 0 -33 -19 6 -59 122 -22 65 -38 122 -35 127 13 22 25 3 51 -81z m1102 25
l34 -64 41 59 c23 33 47 60 54 60 20 0 14 -15 -33 -79 -40 -55 -45 -67 -45
-116 0 -70 -15 -71 -24 -2 -5 34 -21 75 -47 119 -41 70 -47 88 -26 88 6 0 27
-29 46 -65z m-675 49 c34 -13 13 -24 -45 -24 l-60 0 3 -37 c3 -37 4 -38 43
-39 62 -2 65 -3 65 -19 0 -11 -12 -15 -50 -15 l-50 0 0 -41 0 -41 55 4 c47 3
55 0 55 -14 0 -16 -10 -18 -76 -18 l-77 0 7 53 c3 28 6 85 6 125 l0 72 54 0
c30 0 61 -3 70 -6z m173 -4 c47 0 64 -3 60 -12 -2 -9 -24 -12 -72 -10 -60 4
-67 2 -61 -13 3 -9 6 -30 6 -46 0 -28 1 -29 50 -29 28 0 50 -5 50 -10 0 -7
-18 -8 -50 -4 l-50 7 0 -49 0 -49 57 0 c36 0 58 -4 60 -12 4 -10 -15 -13 -70
-13 l-75 0 -7 114 c-7 119 -3 141 22 132 8 -3 44 -6 80 -6z m133 -45 l0 -56
65 56 c36 30 70 55 75 55 23 0 7 -27 -46 -75 l-55 -52 25 -17 c35 -23 91 -99
76 -104 -7 -3 -36 19 -65 48 -66 65 -85 63 -85 -10 0 -32 -4 -49 -10 -45 -11
7 -14 213 -4 239 13 33 24 14 24 -39z m205 -35 c-3 -30 -8 -72 -12 -92 l-6
-38 62 0 c36 0 61 -4 61 -10 0 -7 -25 -10 -67 -8 l-68 3 -3 95 c-2 52 0 106 3
120 7 25 7 25 22 5 11 -15 13 -34 8 -75z m872 53 c9 -21 26 -66 38 -101 l23
-63 41 80 c22 44 41 87 41 95 0 9 7 16 15 16 25 0 17 -30 -33 -130 -48 -96
-67 -116 -78 -83 -4 10 -24 57 -45 104 -22 47 -39 93 -39 102 0 30 21 18 37
-20z m563 -70 l24 -82 16 37 c9 20 25 61 34 90 10 28 21 52 25 52 5 0 21 -39
36 -87 32 -101 38 -99 70 15 11 42 25 72 32 72 7 0 13 -6 13 -12 0 -25 -76
-212 -87 -215 -6 -2 -14 11 -18 29 -11 53 -38 138 -44 138 -6 0 -26 -46 -65
-143 -20 -49 -32 -41 -41 26 -4 28 -16 74 -26 100 -11 26 -19 58 -19 70 0 42
26 -5 50 -90z m-861 88 c7 -5 16 -31 18 -58 5 -50 5 -50 -28 -57 -32 -7 -33
-8 -11 -16 24 -10 60 -75 48 -87 -4 -4 -25 14 -47 40 -31 36 -47 47 -70 47
-28 0 -29 -2 -29 -45 0 -25 -4 -45 -9 -45 -6 0 -11 52 -13 115 l-3 115 65 0
c36 0 71 -4 79 -9z m231 -3 c0 -10 -18 -12 -66 -10 l-65 4 3 -39 3 -38 58 -3
c73 -4 75 -22 2 -22 -54 0 -55 0 -55 -29 0 -16 -3 -36 -6 -45 -5 -14 4 -16 60
-16 91 0 84 -18 -9 -22 l-75 -3 0 118 0 117 75 0 c53 0 75 -4 75 -12z m317
-94 c1 -54 -2 -106 -7 -114 -19 -31 -25 3 -22 138 2 62 5 83 15 80 8 -3 13
-35 14 -104z m223 96 c0 -6 -28 -10 -65 -10 -60 0 -65 -2 -71 -24 -12 -51 -3
-60 54 -57 28 1 52 -2 52 -7 0 -11 -34 -22 -71 -22 -28 0 -39 -16 -39 -56 0
-23 3 -24 70 -24 54 0 70 -3 70 -14 0 -11 -16 -14 -81 -11 -44 2 -82 5 -83 7
-1 1 1 44 5 93 4 50 5 100 2 113 -5 21 -3 22 76 22 47 0 81 -4 81 -10z m820
-62 c0 -38 -5 -34 -13 10 -4 21 -3 31 3 27 6 -3 10 -20 10 -37z m-38 20 c-7
-7 -12 -17 -12 -22 0 -6 4 -4 10 4 11 18 25 7 17 -15 -8 -19 -26 -19 -33 0 -8
20 2 45 18 45 9 0 9 -3 0 -12z m208 -228 l0 -190 185 0 185 0 0 192 c0 133 3
189 10 182 7 -7 10 -76 8 -192 l-3 -182 180 -2 180 -3 -180 -3 -180 -3 0 -192
0 -192 75 -6 75 -5 -78 -2 -78 -2 2 -80 c2 -44 5 -80 7 -80 2 0 51 41 110 91
59 50 137 109 174 132 175 109 360 241 428 306 41 39 77 71 79 71 2 0 32 20
68 45 85 60 155 95 228 115 l60 17 6 89 5 89 2 -87 2 -87 38 -6 c91 -15 138
-26 152 -36 12 -8 10 -9 -7 -4 -32 9 -135 25 -161 25 l-24 0 4 -144 c1 -80 -1
-148 -5 -152 -4 -4 -7 58 -7 138 0 79 -3 147 -6 150 -10 11 -129 -27 -183 -58
-28 -16 -80 -54 -116 -84 l-65 -55 -1 -60 c-1 -33 -1 -63 0 -67 0 -5 -4 -8 -9
-8 -6 0 -10 27 -10 60 0 33 -2 60 -5 60 -3 0 -40 -29 -82 -65 -43 -35 -123
-95 -178 -133 l-100 -68 -3 -52 -3 -52 123 -2 123 -1 -120 -6 c-66 -3 -151 -3
-190 0 -68 6 -60 11 18 12 36 0 37 0 37 38 0 22 -5 39 -11 39 -18 0 -119 -65
-181 -117 -31 -27 -87 -73 -125 -104 l-68 -56 3 -76 c3 -71 5 -77 25 -78 22
-2 22 -2 0 -6 -27 -5 -28 -12 -9 -220 7 -78 18 -148 24 -156 10 -12 9 -16 -4
-21 -23 -9 -102 -7 -108 2 -8 14 6 82 15 76 5 -3 9 14 10 38 1 36 2 39 9 18 6
-18 8 -3 9 50 1 41 4 139 8 218 3 78 3 142 -1 142 -4 0 -29 -18 -57 -40 -76
-60 -86 -60 -197 -6 l-97 47 -6 -28 -7 -28 -1 27 c0 15 -8 33 -16 42 -10 9
-11 17 -5 21 6 4 9 38 8 83 l-3 77 -60 6 -60 6 63 1 62 2 0 68 c0 38 -3 124
-7 190 -5 110 -8 122 -25 122 -12 0 -18 -7 -18 -22 -1 -54 -112 -85 -193 -54
-57 22 -117 98 -117 149 0 52 16 80 63 111 36 24 49 27 93 23 57 -6 95 -23
142 -62 26 -22 30 -31 25 -56 -3 -18 -1 -29 6 -29 6 0 12 -10 12 -22 1 -13 6
20 10 72 5 52 6 139 3 193 -4 68 -3 97 5 97 8 0 11 -58 11 -190z m769 -77 c-1
-142 -5 -278 -9 -303 -4 -25 -7 90 -7 258 0 166 4 302 8 302 5 0 8 -116 8
-257z m388 15 c-1 -46 -3 -9 -3 82 0 91 2 128 3 83 2 -46 2 -120 0 -165z
m-1352 222 c3 -5 1 -10 -4 -10 -6 0 -11 5 -11 10 0 6 2 10 4 10 3 0 8 -4 11
-10z m2366 -21 l22 -22 -7 -731 -7 -731 -34 -9 c-22 -6 -49 -6 -72 0 l-37 9 0
738 c-1 720 -1 739 18 753 30 22 92 18 117 -7z m-267 -149 l26 -10 0 -664 c0
-745 8 -676 -80 -676 -29 0 -52 6 -60 15 -18 22 -10 1305 9 1328 15 19 66 22
105 7z m770 -53 c18 -21 18 -42 11 -547 -4 -289 -8 -572 -10 -630 l-4 -105
-57 -3 c-31 -2 -61 1 -66 6 -6 6 -12 270 -15 646 l-5 636 33 15 c43 19 88 12
113 -18z m-3356 16 c-10 -2 -26 -2 -35 0 -10 3 -2 5 17 5 19 0 27 -2 18 -5z
m192 -3 c28 -17 4 -19 -71 -6 l-74 14 65 1 c36 0 72 -3 80 -9z m-1592 -6 c-3
-2 -263 -5 -579 -7 -316 -1 -520 0 -454 3 148 7 1039 11 1033 4z m109 -1 c-20
-2 -52 -2 -70 0 -17 2 0 4 38 4 39 0 53 -2 32 -4z m1180 1 c-3 -3 -12 -4 -19
-1 -8 3 -5 6 6 6 11 1 17 -2 13 -5z m-2761 -21 c66 -22 129 -66 164 -115 62
-85 86 -206 59 -289 -40 -120 -228 -251 -334 -233 -74 13 -132 28 -159 41 -48
25 -116 94 -144 148 -23 43 -27 62 -27 140 0 75 4 97 23 135 25 48 70 99 115
132 76 55 209 73 303 41z m1183 -9 c2 -2 -121 -3 -275 -2 -162 1 -250 4 -209
8 68 6 476 1 484 -6z m158 10 c-3 -3 -12 -4 -19 -1 -8 3 -5 6 6 6 11 1 17 -2
13 -5z m1156 -1 c-7 -2 -19 -2 -25 0 -7 3 -2 5 12 5 14 0 19 -2 13 -5z m-2843
-56 c0 -2 -12 -14 -27 -28 l-28 -24 24 28 c23 25 31 32 31 24z m5322 -52 c18
-7 14 -1155 -5 -1167 -19 -12 -112 -9 -125 4 -16 16 -18 1148 -2 1148 6 0 10
7 10 16 0 14 8 16 54 10 30 -3 60 -8 68 -11z m1012 -31 c8 -61 8 -619 -1 -907
l-6 -226 -49 -6 c-34 -5 -55 -3 -69 7 -19 13 -20 24 -20 583 0 647 -8 595 87
595 l51 0 7 -46z m-1441 19 c-13 -2 -33 -2 -45 0 -13 2 -3 4 22 4 25 0 35 -2
23 -4z m-3213 -36 c0 -47 1 -47 -451 -47 -235 0 -434 3 -443 6 -16 6 -22 45
-9 57 3 4 208 7 455 7 l448 0 0 -23z m1348 9 c134 -1 182 -4 182 -13 0 -9 -44
-12 -162 -13 -90 0 -233 -5 -318 -10 -171 -10 -819 -14 -844 -4 -19 7 -21 40
-3 48 6 3 226 3 487 0 261 -4 557 -7 658 -8z m3800 -81 c3 -3 6 -239 7 -524
l2 -519 -41 -6 c-23 -3 -57 -2 -76 2 l-35 8 2 514 c3 586 -3 546 87 536 27 -3
51 -8 54 -11z m-5188 -67 l55 -11 -45 -14 c-35 -11 -136 -16 -461 -20 -400 -5
-416 -5 -423 13 -5 13 -1 24 14 36 19 16 53 17 413 12 216 -3 417 -10 447 -16z
m1180 6 c201 -4 374 -10 385 -14 11 -4 -108 -8 -265 -8 -157 0 -341 -4 -410
-10 -77 -7 -229 -8 -395 -4 -242 6 -270 9 -273 24 -6 29 -12 29 958 12z m2765
-482 c0 -555 7 -512 -77 -512 -85 0 -79 -37 -76 508 3 416 5 484 18 492 8 6
42 9 75 8 l60 -3 0 -493z m-510 401 c4 -16 8 -223 10 -461 3 -411 2 -433 -15
-442 -22 -12 -110 -13 -128 -2 -10 7 -13 100 -12 452 0 508 -5 480 85 480 49
0 53 -2 60 -27z m-408 -5 c-3 -8 -6 -5 -6 6 -1 11 2 17 5 13 3 -3 4 -12 1 -19z
m-1759 -54 c171 -4 312 -10 312 -13 0 -3 -107 -6 -237 -6 -131 0 -430 -4 -664
-9 -234 -5 -438 -6 -453 -2 -36 9 -28 29 15 38 35 7 465 3 1027 -8z m-1206
-11 c34 -35 -2 -38 -460 -43 -246 -3 -453 -3 -459 -1 -14 3 -18 43 -6 55 4 4
211 5 460 4 345 -2 455 -6 465 -15z m2042 -66 c18 -18 9 -60 -10 -53 -8 3 -14
1 -14 -4 0 -14 -44 -12 -58 2 -30 30 1 81 44 74 13 -3 31 -11 38 -19z m2423
-23 c-3 -3 -12 -4 -19 -1 -8 3 -5 6 6 6 11 1 17 -2 13 -5z m496 -1 c-7 -2 -19
-2 -25 0 -7 3 -2 5 12 5 14 0 19 -2 13 -5z m-3564 -37 c-2 -2 -159 -7 -349
-10 -189 -4 -347 -9 -351 -12 -4 -2 -157 -6 -341 -9 -183 -2 -373 -9 -423 -14
-49 -6 -262 -11 -471 -11 -344 0 -382 2 -388 16 -17 45 -51 44 1172 44 635 0
1153 -2 1151 -4z m1716 -10 c17 -12 18 -32 16 -347 -2 -298 -4 -335 -18 -346
-23 -18 -108 -17 -122 1 -16 19 -16 673 0 693 15 17 100 17 124 -1z m-238
-198 c4 -7 8 -120 8 -250 0 -189 -3 -239 -13 -243 -21 -8 -142 -6 -143 3 -4
56 -6 417 -2 445 4 27 12 41 27 47 33 13 114 12 123 -2z m-670 -60 c-2 -13 -4
-5 -4 17 -1 22 1 32 4 23 2 -10 2 -28 0 -40z m-4028 -11 c13 -19 27 -19 485
-17 954 5 2860 -2 2841 -9 -11 -4 -764 -8 -1673 -8 -1634 -1 -1654 -1 -1668
-21 -7 -11 -29 -27 -48 -36 -33 -16 -37 -16 -61 0 -14 9 -30 25 -36 35 -8 15
-23 19 -72 21 l-62 2 63 3 c54 3 64 7 79 30 9 14 31 31 47 38 26 11 35 11 61
-2 16 -9 36 -25 44 -36z m3541 14 c0 -52 -33 -95 -67 -86 -36 9 -73 35 -73 51
0 13 103 73 128 74 7 0 12 -14 12 -39z m328 -40 l3 -42 -43 3 c-39 3 -43 6
-49 35 -9 48 12 66 61 53 21 -5 25 -13 28 -49z m500 3 c-4 -3 -82 -9 -175 -12
l-168 -7 -5 -185 -6 -185 -2 192 -2 192 133 4 c72 1 154 4 181 5 27 1 47 -1
44 -4z m129 0 c-3 -3 -12 -4 -19 -1 -8 3 -5 6 6 6 11 1 17 -2 13 -5z m-268
-117 c7 -9 8 -56 4 -146 -6 -130 -7 -133 -31 -142 -14 -6 -49 -9 -76 -7 l-51
3 0 110 c-1 151 3 175 29 185 33 14 112 12 125 -3z m-980 -44 c57 -21 107 -65
122 -111 16 -45 15 -288 -1 -307 -6 -7 -48 -15 -98 -19 -104 -9 -3253 -18
-3299 -10 -23 4 -32 12 -36 30 -3 18 0 24 13 24 15 0 18 16 23 125 7 142 19
180 76 224 59 46 82 55 161 61 41 3 732 4 1535 2 1297 -3 1465 -5 1504 -19z
m-3375 -1461 c-1 -812 1 -1499 4 -1525 4 -46 6 -48 28 -43 39 10 158 -30 206
-69 86 -69 -10 -64 1265 -65 1955 -3 2093 -2 2093 13 0 19 81 98 92 91 10 -7
6 -57 -6 -85 -6 -14 26 -17 311 -23 175 -5 323 -7 328 -7 6 1 638 4 1405 6
901 3 1390 1 1380 -5 -9 -6 -262 -10 -662 -10 l-646 0 -29 -53 -30 -52 5 -734
5 -734 30 -27 c28 -25 30 -30 19 -54 -17 -39 -40 -43 -70 -13 -25 25 -25 28
-13 75 16 65 15 1456 -2 1487 -6 11 -13 36 -17 55 -4 29 -11 36 -35 41 -17 4
-298 7 -625 8 l-595 1 -28 -52 -29 -51 4 -386 c1 -212 2 -545 0 -739 -3 -343
-3 -353 17 -378 33 -42 25 -94 -14 -94 -15 0 -32 11 -44 29 -27 37 -26 45 4
69 l25 20 -7 733 -6 733 -30 52 c-17 29 -40 55 -51 58 -12 3 -367 6 -791 5
l-770 0 -20 -31 c-30 -47 -50 -56 -74 -34 -12 11 -21 30 -21 43 l0 23 -375 0
c-349 0 -376 -1 -382 -17 -10 -28 -45 -63 -64 -63 -18 0 -49 40 -49 65 0 13
-78 15 -707 15 -388 0 -704 -3 -700 -6 9 -9 -26 -75 -52 -98 -36 -32 -119 -54
-202 -52 l-77 1 -10 -35 -9 -35 -2 38 c-1 32 -9 46 -52 88 -41 40 -50 55 -46
74 4 24 2 25 -41 25 -55 0 -51 8 9 18 35 6 45 12 47 29 2 15 14 26 37 33 18 6
37 19 42 28 4 9 8 690 9 1512 0 1258 4 1580 17 1580 1 0 2 -665 1 -1478z
m3997 1261 c34 -20 36 -29 9 -43 -29 -15 -91 -8 -103 11 -28 45 36 66 94 32z
m-334 -295 c-2 -24 -4 -7 -4 37 0 44 2 63 4 43 2 -21 2 -57 0 -80z m116 63
c10 -1 32 -15 49 -31 l30 -31 592 1 c325 1 1056 3 1624 5 l1032 4 34 26 c45
34 70 32 95 -9 26 -41 26 -51 1 -76 -28 -28 -62 -25 -95 10 l-29 30 -322 0
c-178 0 -325 -4 -328 -9 -11 -16 -61 -19 -101 -5 -34 11 -240 13 -1200 12
-638 -1 -1196 -4 -1240 -8 -44 -4 -107 -15 -140 -25 -59 -17 -60 -17 -77 5
-21 26 -24 96 -5 103 6 2 23 3 37 1 14 -1 33 -3 43 -3z m3570 -58 c-13 -2 -33
-2 -45 0 -13 2 -3 4 22 4 25 0 35 -2 23 -4z m-6288 -111 c-5 -26 -5 -26 5 -4
5 13 14 20 20 17 5 -3 10 -1 10 5 0 6 5 8 10 5 6 -3 10 -22 10 -41 0 -19 -4
-34 -10 -34 -5 0 -10 8 -10 17 0 13 -3 14 -12 5 -7 -7 -17 -12 -24 -12 -14 0
-29 54 -19 70 12 19 25 -1 20 -28z m1327 15 c-2 -11 2 -15 13 -11 8 3 15 2 15
-4 0 -6 -6 -13 -12 -15 -10 -4 -10 -6 -1 -6 19 -1 26 18 13 34 -10 12 -9 15 9
15 19 0 22 -5 19 -32 -2 -25 -8 -32 -28 -35 -20 -2 -30 4 -43 26 -22 37 -22
53 1 49 9 -2 16 -11 14 -21z m198 -16 c0 -33 -20 -54 -44 -45 -22 8 -20 40 4
64 25 25 40 18 40 -19z m471 7 c2 -31 2 -31 6 -5 6 39 23 33 23 -8 0 -22 -5
-35 -13 -35 -21 0 -37 22 -37 52 0 39 20 35 21 -4z m-2648 15 c-7 -2 -13 -17
-13 -31 0 -21 -2 -24 -10 -12 -18 27 -12 50 13 49 12 0 16 -3 10 -6z m67 -4
c0 -5 4 -8 9 -4 5 3 13 0 16 -5 5 -8 13 -6 25 5 11 10 30 15 47 13 23 -2 28
-7 25 -27 -3 -26 -28 -61 -44 -61 -5 0 -13 12 -19 27 -7 20 -13 23 -21 15 -16
-16 -28 -15 -28 3 0 8 -4 15 -10 15 -5 0 -10 -9 -10 -20 0 -11 -6 -20 -14 -20
-10 0 -13 9 -11 28 2 15 4 30 4 35 1 11 31 8 31 -4z m680 -29 c0 -22 -4 -40
-10 -40 -11 0 -14 63 -3 73 11 12 13 8 13 -33z m54 29 c4 6 18 11 32 11 21 0
24 -5 24 -34 0 -37 -20 -52 -49 -36 -10 5 -21 6 -25 3 -3 -3 -7 5 -7 18 -1 21
-2 21 -9 -6 l-8 -30 -1 37 c-1 35 17 56 30 35 4 -5 9 -5 13 2z m482 -11 c-3
-13 -3 -17 0 -10 8 17 22 15 28 -5 4 -15 5 -15 4 2 -1 34 2 38 16 26 19 -16 9
-60 -15 -58 -10 1 -19 6 -19 12 0 5 -4 4 -9 -4 -7 -11 -11 -10 -20 7 -16 29
-14 52 5 52 11 0 14 -6 10 -22z m94 -13 c0 -13 -4 -27 -10 -30 -6 -4 -10 8
-10 30 0 22 4 34 10 30 6 -3 10 -17 10 -30z m38 26 c18 -11 11 -66 -8 -66 -10
0 -16 12 -18 38 -3 37 2 43 26 28z m92 -15 c0 -35 -10 -56 -27 -56 -11 0 -13
7 -9 25 4 14 2 25 -4 25 -5 0 -10 -9 -10 -20 0 -11 -4 -20 -10 -20 -10 0 -14
52 -5 61 2 3 18 6 35 7 26 2 30 -1 30 -22z m606 8 c-3 -9 -6 -24 -6 -35 0 -33
-20 -21 -21 14 l-1 32 -10 -32 c-14 -43 -29 -42 -25 2 2 33 4 35 36 35 26 0
32 -3 27 -16z m604 -6 c0 -26 -16 -55 -25 -47 -8 8 6 69 16 69 5 0 9 -10 9
-22z m50 -10 c0 -25 -3 -29 -10 -18 -8 13 -10 13 -10 -2 0 -9 -4 -20 -10 -23
-6 -4 -10 10 -10 34 0 34 3 41 20 41 16 0 20 -7 20 -32z m75 13 c12 -39 -26
-75 -52 -48 -10 10 -11 20 -4 40 12 31 47 37 56 8z m415 -1143 c0 -639 -3
-1159 -6 -1155 -3 3 -8 491 -10 1084 -4 959 -1 1233 12 1233 2 0 4 -523 4
-1162z m-3230 1121 c0 -5 -4 -9 -10 -9 -5 0 -10 7 -10 16 0 8 5 12 10 9 6 -3
10 -10 10 -16z m4680 -14 c9 -9 53 -20 101 -26 261 -32 517 -137 664 -270 l56
-52 27 25 c15 14 43 35 62 48 48 33 50 37 44 100 -5 47 -3 59 16 83 18 23 29
27 70 27 44 0 52 -4 74 -33 21 -27 26 -45 26 -89 0 -36 -5 -60 -14 -67 -22
-18 -81 -25 -105 -12 -35 19 -24 31 28 31 63 0 85 19 77 68 -7 45 -51 92 -86
92 -14 0 -36 -9 -48 -20 -27 -25 -30 -49 -4 -29 14 11 14 10 -2 -8 -15 -18
-17 -32 -13 -67 6 -42 5 -46 -36 -82 -23 -21 -52 -50 -64 -65 l-22 -26 37 -39
c117 -123 200 -276 256 -470 27 -93 56 -260 56 -319 0 -3 11 -5 25 -5 14 0 25
-5 25 -10 0 -6 -10 -8 -24 -4 -22 5 -25 2 -30 -28 -35 -229 -67 -341 -140
-485 -53 -105 -85 -151 -191 -273 -86 -99 -124 -129 -255 -206 -175 -103 -401
-174 -555 -174 -26 0 -48 -6 -55 -15 -7 -8 -16 -15 -20 -15 -12 0 -21 31 -15
51 7 20 35 26 35 8 0 -29 313 30 425 80 101 45 268 147 327 200 96 87 213 234
264 333 51 99 107 255 129 361 46 213 -19 564 -138 755 -64 102 -161 242 -168
242 -4 0 -22 -15 -40 -33 -19 -18 -71 -64 -116 -101 -46 -37 -83 -72 -83 -76
0 -5 23 -35 50 -67 53 -61 136 -214 164 -298 12 -39 35 -192 36 -237 0 -5 19
-9 43 -10 l42 -1 -41 -4 -42 -4 -7 -67 c-14 -133 -31 -189 -108 -340 -54 -107
-100 -172 -112 -160 -12 11 3 54 29 85 37 44 122 211 144 283 11 36 21 94 23
130 l4 65 -29 3 c-17 2 -48 1 -71 -3 -40 -5 -42 -8 -53 -53 l-11 -47 4 48 c5
55 -4 63 -56 49 -29 -9 -30 -10 -10 -11 19 -1 22 -4 14 -12 -6 -6 -9 -25 -6
-43 9 -58 -68 -229 -137 -305 -39 -42 -41 -43 -55 -25 -14 18 -14 17 -6 -6 7
-23 3 -28 -41 -59 -115 -77 -240 -121 -344 -121 -39 0 -44 3 -45 23 -2 21 -2
21 -6 1 -4 -19 -8 -20 -66 -12 -140 18 -298 88 -362 159 l-20 21 50 43 c27 24
47 46 44 49 -3 3 -27 -16 -53 -43 l-49 -49 -38 35 c-44 41 -100 144 -124 228
-9 33 -20 72 -25 87 -9 30 -13 27 80 41 14 3 -1 5 -32 6 -67 1 -66 -2 -48 126
18 125 54 207 124 279 132 136 257 198 432 215 l74 7 1 -41 1 -40 8 48 c14 82
20 65 20 -56 0 -116 0 -117 23 -117 40 0 148 -40 204 -76 29 -19 56 -34 59
-34 3 0 45 41 93 92 l87 92 -35 33 c-62 59 -202 120 -321 141 l-105 18 -3 37
c-2 26 1 39 11 43 39 15 252 -38 345 -85 57 -29 162 -111 162 -127 0 -8 6 -11
18 -7 11 4 7 -5 -13 -27 -28 -30 -28 -32 -7 -25 31 9 45 -4 102 -101 48 -82
73 -150 84 -229 19 -132 19 -137 5 -146 -9 -5 11 -9 55 -9 l69 0 -7 78 c-15
173 -57 282 -167 435 -64 89 -59 83 -67 72 -4 -6 -16 -17 -27 -25 -17 -12 -16
-10 3 11 l22 25 -22 20 c-76 68 -179 126 -287 163 -76 26 -250 57 -273 49 -20
-8 -32 -75 -23 -133 6 -44 6 -44 -27 -49 -264 -37 -342 -71 -480 -210 -120
-121 -176 -239 -178 -371 0 -27 -4 -55 -8 -61 -11 -17 -102 -25 -108 -9 -7 18
22 192 45 265 29 93 108 227 166 283 70 67 181 142 263 177 74 31 263 74 299
67 19 -3 23 0 23 19 0 26 -15 29 -105 25 -147 -8 -459 -162 -469 -233 -1 -9
-15 -27 -30 -39 -16 -13 -51 -56 -77 -97 -54 -83 -68 -74 -16 10 62 102 121
169 196 224 137 100 259 147 419 160 l82 7 2 31 1 31 4 -32 c4 -30 7 -32 51
-38 122 -16 223 -39 292 -66 65 -25 198 -107 250 -154 16 -15 20 -13 49 15 17
18 29 36 25 41 -3 5 -1 8 4 7 10 -3 161 113 161 124 2 18 -77 82 -164 133
-262 155 -446 201 -780 199 -121 -1 -262 -39 -423 -115 -152 -71 -197 -106
-389 -298 -54 -55 -75 -87 -133 -205 -123 -253 -173 -543 -127 -751 25 -113
91 -289 144 -381 52 -92 144 -211 171 -222 9 -3 48 -33 87 -65 89 -75 196
-142 285 -178 80 -32 272 -84 345 -93 100 -13 125 -18 125 -27 0 -16 -233 20
-360 57 -94 27 -245 96 -318 146 -62 42 -154 116 -169 136 -14 17 -16 16 -102
-63 -43 -39 -43 -39 -22 -7 12 17 38 44 57 58 l34 27 -40 43 c-48 52 -115 154
-159 242 -66 131 -131 371 -131 484 l0 39 -35 -7 c-23 -4 -35 -2 -35 5 0 6 13
11 29 11 28 0 29 2 35 63 28 266 157 593 287 728 31 32 54 59 50 59 -4 0 -32
29 -63 65 l-56 64 -25 -19 c-57 -45 -128 -11 -142 68 -8 49 5 76 48 102 47 29
101 26 126 -6 23 -29 29 -102 10 -121 -9 -9 7 -29 58 -80 39 -38 75 -67 82
-65 6 2 9 8 5 13 -3 5 -1 9 5 9 6 0 39 26 74 58 149 134 433 242 705 267 39 4
72 11 72 16 0 13 11 11 30 -6z m-63 -61 c-3 -3 -12 -4 -19 -1 -8 3 -5 6 6 6
11 1 17 -2 13 -5z m2160 -26 c-3 -8 -6 -5 -6 6 -1 11 2 17 5 13 3 -3 4 -12 1
-19z m-6464 5 c29 -4 41 -12 48 -31 6 -14 7 -113 3 -243 l-7 -219 -309 0 -308
0 0 218 c0 241 3 254 63 271 36 10 452 14 510 4z m491 0 l198 -6 9 -26 c6 -15
7 -109 3 -243 l-7 -218 -303 0 -304 0 -1 98 c-3 186 3 367 13 379 19 23 92 26
392 16z m864 -15 c9 -8 12 -69 12 -244 l0 -234 -313 0 -314 0 -6 137 c-8 180
1 318 22 337 9 8 39 17 66 19 88 8 519 -5 533 -15z m640 16 c17 -3 32 -14 34
-23 1 -9 2 -118 0 -244 l-3 -227 -312 2 -312 3 -2 225 c-2 128 1 231 6 240 6
8 33 17 63 21 70 8 487 11 526 3z m693 -23 c17 -21 19 -41 19 -241 l0 -217
-37 -7 c-21 -3 -165 -6 -319 -6 l-281 0 -7 124 c-8 134 -6 330 3 344 20 29 51
32 324 30 l279 -3 19 -24z m1643 -53 c4 -45 3 -85 -1 -89 -4 -4 -53 -13 -108
-19 -114 -14 -243 -48 -330 -89 -57 -27 -216 -138 -230 -161 -4 -6 -32 11 -68
42 -34 28 -66 55 -70 59 -11 8 87 102 166 158 63 44 148 86 224 110 23 8 40
18 37 22 -3 5 10 9 28 9 18 1 58 7 88 14 48 12 51 14 25 17 -16 2 29 5 101 6
l131 2 7 -81z m46 68 c0 -3 -4 -8 -10 -11 -5 -3 -10 -1 -10 4 0 6 5 11 10 11
6 0 10 -2 10 -4z m1027 -22 c-3 -3 -12 -4 -19 -1 -8 3 -5 6 6 6 11 1 17 -2 13
-5z m1060 -26 c-3 -8 -6 -5 -6 6 -1 11 2 17 5 13 3 -3 4 -12 1 -19z m-1037 -5
c0 -23 -36 -83 -50 -83 -18 0 -12 78 8 89 26 16 42 13 42 -6z m442 6 c42 -11
68 -48 68 -97 0 -35 -33 -53 -99 -54 -90 -1 -124 91 -52 139 39 27 35 26 83
12z m478 -4 c27 -32 2 -37 -144 -29 -77 5 -159 8 -181 6 -55 -2 -85 6 -85 23
0 22 391 22 410 0z m117 -177 c-2 -29 -3 -6 -3 52 0 58 1 81 3 53 2 -29 2 -77
0 -105z m-2100 90 c-2 -13 -4 -5 -4 17 -1 22 1 32 4 23 2 -10 2 -28 0 -40z
m56 -25 c-7 -2 -19 -2 -25 0 -7 3 -2 5 12 5 14 0 19 -2 13 -5z m1937 -3 c35
-10 15 -16 -102 -29 -124 -14 -295 -14 -303 -1 -4 6 -4 17 -1 25 4 13 38 15
193 14 103 -1 199 -4 213 -9z m-1843 -6 c-3 -3 -12 -4 -19 -1 -8 3 -5 6 6 6
11 1 17 -2 13 -5z m46 -11 c-7 -2 -19 -2 -25 0 -7 3 -2 5 12 5 14 0 19 -2 13
-5z m252 -78 c28 -12 61 -32 75 -44 l25 -23 -33 22 c-17 12 -60 33 -95 47 -34
14 -64 27 -67 30 -9 9 43 -8 95 -32z m1545 -40 c10 -7 -47 -13 -190 -20 -113
-6 -207 -9 -209 -8 -12 8 17 12 144 20 l140 8 -125 6 c-117 5 -113 6 50 5 99
-1 182 -5 190 -11z m-446 -11 c20 -19 30 -59 21 -74 -11 -17 -70 -40 -103 -40
-40 0 -77 40 -68 75 12 46 116 74 150 39z m563 -96 c-2 -18 -4 -4 -4 32 0 36
2 50 4 33 2 -18 2 -48 0 -65z m-2884 -9 c20 -11 37 -22 37 -25 0 -2 -30 -44
-66 -92 -120 -160 -185 -323 -200 -506 l-7 -86 -90 5 -91 4 2 48 c5 86 34 236
63 325 39 121 85 207 170 320 l72 98 36 -36 c20 -20 53 -45 74 -55z m2745 54
c13 -3 21 -10 19 -17 -2 -7 -67 -12 -206 -14 -187 -2 -202 -1 -199 15 2 9 14
21 28 25 26 8 318 1 358 -9z m-2641 -168 c-8 -8 -25 -31 -37 -52 -13 -21 -45
-72 -71 -113 -27 -42 -55 -98 -63 -125 -29 -104 -49 -248 -43 -320 7 -84 79
-303 139 -420 39 -78 69 -122 54 -80 -6 17 -4 17 19 -5 l26 -24 27 28 c25 25
26 28 9 37 -62 36 -135 176 -177 341 -32 126 -32 126 41 127 l36 1 12 -75 c16
-96 77 -220 140 -286 l46 -47 -59 -67 c-32 -36 -57 -67 -55 -68 2 -2 38 -30
79 -64 149 -120 271 -168 453 -177 57 -3 67 -1 68 13 1 12 2 12 6 -3 5 -17 12
-18 82 -13 160 13 308 69 425 161 35 28 72 56 81 61 14 9 9 17 -34 65 -47 52
-49 53 -38 22 12 -33 11 -35 -28 -68 -48 -42 -134 -94 -155 -94 -11 0 -12 2
-3 8 7 4 9 13 5 19 -6 9 -21 6 -57 -12 -30 -14 -42 -25 -30 -25 56 -1 -93 -57
-164 -62 -36 -2 -46 1 -52 17 -8 18 -8 17 -6 -4 1 -13 -4 -26 -12 -29 -10 -3
-12 8 -8 54 3 33 6 60 6 60 1 1 33 5 71 8 148 15 287 79 407 187 80 73 100 96
127 144 10 17 15 22 12 13 -3 -9 -10 -35 -16 -57 -6 -22 -15 -43 -20 -46 -6
-3 -10 -14 -10 -24 0 -10 -9 -30 -20 -44 -19 -24 -20 -28 -5 -50 8 -13 33 -38
55 -56 39 -31 53 -55 27 -45 -8 3 -30 -10 -50 -29 -95 -86 -315 -178 -482
-201 -83 -11 -90 -13 -93 -35 -4 -23 -3 -24 60 -17 34 4 92 14 128 22 84 20
287 118 368 178 35 26 67 45 70 42 18 -19 -180 -136 -341 -202 -49 -20 -254
-64 -298 -64 -5 0 -9 16 -9 35 0 21 -5 35 -12 35 -7 0 -58 7 -113 15 -178 27
-253 62 -421 195 -66 53 -79 59 -87 45 -12 -23 9 -44 117 -114 50 -33 102 -69
116 -81 50 -42 -17 -2 -138 83 -63 45 -119 81 -123 80 -4 -1 -10 4 -13 12 -3
9 1 15 9 15 8 0 15 2 15 5 0 3 -27 39 -60 81 -33 42 -68 90 -76 107 -30 56
-64 170 -80 262 -14 81 -14 105 0 235 22 206 33 236 148 407 26 40 48 77 48
83 0 5 5 10 10 10 7 0 7 6 0 19 -19 36 -10 46 11 14 18 -29 19 -34 6 -48z
m2173 50 c0 -8 6 -15 13 -15 16 -1 57 -35 57 -49 0 -8 60 -11 207 -9 132 2
207 -1 210 -7 2 -6 -26 -9 -78 -6 -88 4 -283 -9 -260 -17 9 -3 1 -10 -20 -19
-56 -23 -19 -31 177 -38 98 -4 186 -9 194 -12 39 -14 -40 -22 -225 -23 -159 0
-204 -4 -219 -15 -11 -8 -28 -15 -38 -15 -10 0 -18 -4 -18 -9 0 -12 -65 3 -96
24 -41 27 -49 63 -25 110 41 77 121 144 121 100z m-2084 -33 c-18 -16 -18 -16
-6 6 6 13 14 21 18 18 3 -4 -2 -14 -12 -24z m2691 -4 c-3 -7 -5 -2 -5 12 0 14
2 19 5 13 2 -7 2 -19 0 -25z m-6429 -255 l-3 -258 -302 0 c-166 0 -305 4 -310
8 -13 14 -7 465 7 481 17 22 33 23 333 25 l277 1 -2 -257z m650 240 c6 -11 8
-111 4 -255 l-5 -238 -303 0 -304 0 0 249 c0 191 3 250 13 254 6 2 141 5 299
6 268 2 287 1 296 -16z m672 -225 c0 -130 -3 -243 -6 -252 -5 -14 -42 -16
-314 -16 l-308 0 -7 154 c-4 85 -4 197 0 250 l7 95 92 3 c50 2 191 3 313 3
l223 0 0 -237z m658 -17 l2 -251 -309 0 -310 0 -6 43 c-3 23 -5 134 -3 247 l3
205 60 6 c33 4 173 6 310 4 l250 -3 3 -251z m669 246 c16 -10 28 -464 13 -482
-10 -13 -63 -15 -326 -15 l-314 0 0 250 0 250 243 3 c277 4 370 2 384 -6z
m3551 -64 c-16 -2 -40 -2 -55 0 -16 2 -3 4 27 4 30 0 43 -2 28 -4z m-339 -160
c12 -10 24 -34 27 -55 5 -31 3 -38 -19 -53 -14 -9 -46 -17 -71 -18 -35 -2 -50
3 -70 22 -33 31 -33 43 4 80 42 42 95 52 129 24z m-649 -28 c0 -5 -5 -3 -10 5
-5 8 -10 20 -10 25 0 6 5 3 10 -5 5 -8 10 -19 10 -25z m859 1 c-8 -9 -169 -13
-169 -4 0 4 39 8 87 8 47 0 84 -2 82 -4z m179 -13 c-32 -2 -84 -2 -115 0 -32
2 -6 3 57 3 63 0 89 -1 58 -3z m-1019 -53 c0 -9 -4 -8 -9 5 -5 11 -9 27 -9 35
0 9 4 8 9 -5 5 -11 9 -27 9 -35z m899 24 c100 -4 182 -11 182 -15 0 -11 -131
-13 -375 -5 -21 1 -31 7 -33 20 -3 15 0 18 20 13 12 -3 105 -9 206 -13z m289
-16 c-3 -8 -6 -5 -6 6 -1 11 2 17 5 13 3 -3 4 -12 1 -19z m-3003 -119 c-10
-80 -15 -158 -12 -219 3 -52 2 -84 -2 -70 -5 14 -8 43 -9 66 -1 22 -5 44 -10
50 -9 9 6 136 30 252 19 94 21 48 3 -79z m1823 59 c-3 -7 -5 -2 -5 12 0 14 2
19 5 13 2 -7 2 -19 0 -25z m1190 10 c-3 -8 -6 -5 -6 6 -1 11 2 17 5 13 3 -3 4
-12 1 -19z m-10 -180 c-2 -18 -4 -6 -4 27 0 33 2 48 4 33 2 -15 2 -42 0 -60z
m-109 32 c4 -11 -15 -12 -109 -7 -63 4 -143 8 -179 9 -48 1 -35 3 45 7 175 9
238 7 243 -9z m-440 -22 c14 -14 16 -54 3 -63 -6 -3 -35 -10 -66 -16 -49 -9
-59 -8 -76 7 -24 21 -25 60 -1 73 24 14 125 14 140 -1z m-5905 -5 l37 -5 0
-243 c0 -134 -3 -245 -7 -247 -13 -5 -601 7 -607 12 -25 26 -15 449 11 476 13
12 55 14 272 13 141 -1 273 -3 294 -6z m565 0 l122 -6 0 -244 c0 -151 -4 -243
-10 -243 -5 0 -125 -3 -265 -6 -141 -3 -276 -3 -301 1 l-44 6 0 243 c0 133 3
246 7 249 8 9 333 9 491 0z m782 -13 c6 -9 9 -111 7 -245 l-2 -230 -311 -3
-311 -2 -7 105 c-4 58 -4 168 0 245 l7 139 71 4 c39 2 176 3 304 3 195 -1 234
-3 242 -16z m609 14 l61 -7 0 -243 c0 -239 0 -243 -21 -249 -27 -9 -581 4
-591 13 -9 10 -22 413 -14 456 l7 36 248 0 c136 0 276 -3 310 -6z m738 -7 c8
-9 5 -465 -3 -479 -3 -4 -146 -8 -319 -8 -242 0 -314 3 -317 13 -2 6 -2 116 0
244 l4 232 31 4 c58 8 595 2 604 -6z m3571 -54 c56 -3 106 -11 109 -16 4 -7
-13 -8 -48 -3 -30 3 -127 9 -217 13 -102 4 -158 10 -150 15 12 9 51 8 306 -9z
m-2928 -23 c0 -11 -17 -13 -62 -10 -17 1 -28 -4 -28 -12 -1 -9 -5 -7 -14 5 -7
9 -23 17 -36 17 -22 0 -23 -1 -18 -92 3 -51 2 -84 -3 -73 -4 11 -8 55 -8 98
l-1 77 85 0 c50 0 85 -4 85 -10z m2138 -4 c3 -4 -4 -59 -16 -124 -19 -103 -55
-212 -110 -332 -29 -63 -120 -204 -150 -233 l-29 -28 -64 47 c-35 27 -66 49
-68 51 -2 1 12 20 31 41 93 103 200 353 213 498 10 103 3 98 101 91 47 -2 88
-8 92 -11z m412 -72 c31 -7 32 -9 27 -46 -8 -56 -21 -68 -80 -68 -57 0 -87 19
-87 57 0 52 54 74 140 57z m-873 -56 c-3 -7 -5 -2 -5 12 0 14 2 19 5 13 2 -7
2 -19 0 -25z m1348 13 c-6 -4 -32 -5 -60 -1 l-50 7 60 2 c34 0 55 -3 50 -8z
m-72 -81 c35 0 57 -4 57 -11 0 -13 -215 -2 -259 12 -17 6 4 7 59 4 47 -3 111
-5 143 -5z m-1066 -32 c-3 -8 -6 -5 -6 6 -1 11 2 17 5 13 3 -3 4 -12 1 -19z
m-32 -115 c-24 -61 -27 -50 -7 22 9 33 18 52 20 41 2 -10 -4 -38 -13 -63z
m-1751 -60 c9 -18 14 -33 12 -33 -6 0 -36 55 -36 66 0 11 5 3 24 -33z m2449
26 c30 -16 37 -28 37 -66 0 -43 -39 -73 -95 -73 -36 0 -48 5 -69 31 -34 40
-33 62 5 93 33 28 84 34 122 15z m472 1 c3 -5 -2 -10 -14 -10 -11 0 -110 -1
-220 -2 -111 -2 -201 0 -201 4 0 15 426 23 435 8z m-2469 -67 c82 -78 200
-123 362 -139 l72 -7 0 -64 0 -65 -67 7 c-128 13 -201 33 -301 84 -99 51 -172
107 -172 133 0 11 56 88 64 88 2 0 21 -17 42 -37z m-3888 1 l31 -6 -5 -237
c-5 -230 -6 -237 -29 -257 -21 -19 -38 -21 -241 -27 -198 -5 -223 -4 -261 13
-74 32 -78 45 -81 284 -3 192 -2 211 14 223 14 10 82 13 280 13 144 0 275 -3
292 -6z m682 -238 c0 -222 -2 -246 -18 -266 -19 -23 -20 -23 -294 -23 -215 -1
-280 2 -292 12 -14 12 -16 47 -16 261 0 189 3 250 13 253 6 3 146 6 310 6
l297 1 0 -244z m665 -2 c0 -224 -1 -243 -19 -263 -19 -20 -27 -21 -301 -21
-205 0 -284 3 -293 12 -9 9 -12 80 -12 259 l0 248 28 4 c15 2 155 4 312 3
l285 -1 0 -241z m588 240 l77 -7 0 -243 c0 -240 0 -243 -22 -258 -19 -14 -63
-16 -283 -16 -189 0 -267 4 -285 13 l-25 13 -3 239 c-1 132 0 245 2 252 4 10
58 13 234 13 126 0 263 -3 305 -6z m745 -3 c11 -6 13 -52 10 -217 -3 -198 -4
-211 -26 -246 -14 -23 -35 -41 -56 -48 -37 -12 -156 -16 -368 -12 -204 3 -188
-21 -188 280 0 131 3 242 7 245 9 10 606 8 621 -2z m3661 -17 c15 -15 -12 -17
-216 -15 -131 1 -173 4 -173 14 0 9 43 11 192 9 106 -2 195 -6 197 -8z m-1247
-32 c-33 -52 -66 -92 -90 -108 -18 -12 -22 -12 -16 -3 8 15 117 139 121 139 2
0 -5 -12 -15 -28z m758 -73 c0 -5 6 -9 14 -9 21 0 57 -50 54 -74 -4 -27 -81
-44 -136 -30 -32 8 -37 13 -40 42 -4 36 17 69 53 82 22 8 55 2 55 -11z m488
-27 c7 -5 -76 -12 -194 -15 -114 -4 -209 -5 -212 -3 -2 3 -1 9 2 15 8 12 385
15 404 3z m-2711 -47 c32 -45 171 -145 256 -185 110 -52 237 -87 341 -96 l86
-7 0 -61 c0 -73 -9 -90 -41 -82 -18 4 -17 2 6 -9 29 -15 29 -15 -25 -9 -147
16 -295 56 -435 117 -69 29 -219 128 -282 184 l-33 30 55 50 c30 27 55 57 55
67 0 13 -16 4 -57 -34 -64 -57 -93 -76 -93 -61 0 5 28 31 63 57 34 26 64 51
65 56 6 15 21 9 39 -17z m1443 -49 l57 -54 -38 -44 c-84 -99 -294 -213 -484
-264 -100 -26 -229 -46 -251 -37 -10 4 -14 26 -14 84 l0 78 38 6 c115 19 204
40 257 60 109 41 222 103 296 164 41 33 76 60 78 61 2 0 30 -24 61 -54z m1120
24 c0 -5 -5 -10 -11 -10 -5 0 -7 5 -4 10 3 6 8 10 11 10 2 0 4 -4 4 -10z m80
-6 c0 -2 -17 -4 -37 -4 -24 0 -33 3 -25 9 12 7 62 4 62 -5z m177 -191 c-2 -37
-3 -9 -3 62 0 72 1 102 3 68 2 -34 2 -93 0 -130z m-1097 -58 c49 25 86 19 114
-18 61 -80 -4 -222 -93 -202 -48 10 -71 48 -70 114 l1 56 8 -50 c12 -80 18
-93 55 -105 59 -20 106 27 108 107 1 91 -69 131 -134 76 -18 -15 -30 -22 -26
-16 5 8 -16 36 -58 78 -36 36 -65 70 -65 76 0 6 30 -21 66 -60 l66 -71 28 15z
m524 99 c12 -5 16 -20 16 -59 l0 -53 -46 -7 c-54 -8 -90 11 -100 52 -13 49 68
91 130 67z m473 -18 c16 -16 -18 -17 -194 -10 -138 6 -173 10 -133 15 67 8
318 4 327 -5z m-3075 -70 c19 -8 40 -26 46 -41 24 -52 11 -145 -22 -167 -6 -4
-33 -8 -59 -8 -40 0 -53 5 -78 29 -48 48 -38 142 19 189 21 16 52 15 94 -2z
m2146 -89 c11 -23 11 -30 -2 -48 -14 -20 -15 -20 -40 23 -32 56 -32 60 1 56
19 -2 32 -12 41 -31z m473 -6 c55 -56 26 -121 -54 -121 -49 0 -83 24 -93 67
-6 22 -1 32 25 55 42 38 83 37 122 -1z m566 -118 c-2 -21 -4 -4 -4 37 0 41 2
58 4 38 2 -21 2 -55 0 -75z m-99 72 c15 -15 -23 -20 -90 -14 -40 4 -118 8
-173 9 -55 0 -107 5 -115 11 -11 8 40 9 179 5 106 -3 196 -8 199 -11z m-6921
-75 c16 -6 59 -15 94 -20 l64 -9 -73 5 c-40 2 -87 11 -105 18 -38 17 -23 21
20 6z m2803 -24 c28 -7 -565 -4 -635 3 -38 3 85 5 275 3 190 -2 352 -5 360 -6z
m118 7 c-10 -2 -26 -2 -35 0 -10 3 -2 5 17 5 19 0 27 -2 18 -5z m215 0 c-13
-2 -33 -2 -45 0 -13 2 -3 4 22 4 25 0 35 -2 23 -4z m-2905 -10 c-10 -2 -26 -2
-35 0 -10 3 -2 5 17 5 19 0 27 -2 18 -5z m1450 0 c-54 -2 -142 -2 -195 0 -54
1 -10 3 97 3 107 0 151 -2 98 -3z m280 0 c-26 -2 -71 -2 -100 0 -29 2 -8 3 47
3 55 0 79 -1 53 -3z m5079 -94 c15 -29 17 -84 3 -110 -16 -28 -57 -24 -91 10
-40 41 -37 65 13 101 47 34 58 34 75 -1z m161 -66 c-21 -2 -55 -2 -75 0 -21 2
-4 4 37 4 41 0 58 -2 38 -4z m-4240 -160 c36 -21 91 -48 121 -59 61 -24 64
-27 80 -99 7 -27 23 -74 38 -103 l25 -54 -25 -46 c-14 -26 -33 -73 -42 -105
l-17 -58 -107 -53 c-117 -59 -130 -70 -141 -119 l-8 -32 -1 30 c-1 17 -5 36
-10 43 -4 7 -59 39 -122 71 l-114 57 -21 78 c-12 43 -32 92 -44 109 -18 24
-21 34 -12 46 28 39 51 91 66 146 8 33 19 61 23 63 4 1 58 29 118 61 61 33
114 60 118 60 5 1 39 -16 75 -36z m804 -8 c29 -25 64 -48 78 -51 82 -18 114
-49 125 -121 8 -54 18 -78 49 -111 l21 -23 -25 -19 c-14 -10 -27 -16 -30 -12
-3 4 -18 15 -35 24 -20 11 -35 31 -45 59 -11 30 -26 49 -50 63 l-35 19 26 -29
c14 -16 28 -36 31 -44 8 -24 -10 -137 -28 -171 -13 -26 -18 -28 -31 -18 -13
11 -20 8 -44 -19 -28 -31 -44 -81 -17 -54 7 7 17 12 23 12 5 0 4 -4 -3 -9 -7
-4 -14 -17 -15 -29 0 -11 -6 -20 -12 -19 -5 1 -10 -14 -10 -33 0 -40 -33 -110
-35 -75 -3 51 -61 108 -120 118 -50 9 -115 31 -122 41 -4 6 -10 40 -13 76 -9
89 -12 98 -42 114 -26 13 -26 14 -6 24 15 8 26 33 38 83 23 92 62 138 142 167
32 12 74 35 93 51 19 17 36 30 37 31 1 0 25 -20 55 -45z m-1622 -6 c94 -43
143 -98 171 -192 16 -50 20 -83 15 -120 -8 -72 -57 -166 -106 -206 -49 -39
-162 -92 -199 -93 -59 -2 -207 85 -246 144 -39 58 -67 154 -60 202 23 152 93
240 228 288 66 23 108 18 197 -23z m-1724 6 c119 -50 197 -159 198 -279 2
-133 -113 -280 -240 -306 -72 -15 -113 -8 -192 32 -73 37 -115 81 -150 156
-21 46 -24 65 -20 126 10 147 84 240 228 287 34 11 132 3 176 -16z m844 -11
c164 -73 221 -243 139 -411 -51 -106 -149 -167 -266 -166 -40 0 -66 9 -120 38
-37 20 -79 47 -91 58 -61 56 -88 168 -67 271 17 81 41 122 102 176 85 75 187
86 303 34z m3660 -23 c53 -38 67 -115 27 -155 -66 -65 -187 -23 -187 65 0 41
29 90 62 104 37 16 61 12 98 -14z m1400 -3 c0 -44 -13 -98 -21 -92 -10 6 -12
97 -2 107 13 14 23 7 23 -15z m160 -8 c128 -27 136 -33 105 -74 -8 -11 -15
-28 -15 -38 0 -10 -3 -18 -6 -18 -15 0 -33 37 -34 68 0 17 -4 32 -10 32 -5 0
-10 -18 -10 -39 0 -22 -4 -43 -10 -46 -10 -6 -14 17 -10 69 2 39 -16 25 -24
-19 -10 -50 -30 -46 -22 5 3 22 4 40 2 40 -2 0 -11 3 -20 6 -10 4 -16 1 -16
-9 0 -22 -21 -67 -32 -67 -4 0 -8 21 -8 47 0 43 -1 45 -15 27 -14 -18 -14 -17
-15 15 0 31 2 33 28 26 15 -4 65 -15 112 -25z m-216 -27 c-8 -56 -12 -65 -25
-58 -5 4 -9 28 -9 56 0 43 3 49 21 49 19 0 20 -4 13 -47z m-49 20 c-2 -10 -7
-35 -10 -56 -5 -32 -9 -36 -21 -27 -11 10 -14 10 -14 1 0 -7 -4 -9 -10 -6 -5
3 -10 22 -10 41 0 24 -4 34 -12 31 -7 -2 -12 -15 -10 -28 2 -18 1 -21 -7 -10
-7 11 -10 6 -13 -20 l-5 -34 -13 33 c-17 37 -30 42 -30 10 0 -19 -2 -20 -11
-8 -8 11 -12 12 -16 3 -6 -17 -43 -17 -43 0 0 15 39 34 130 67 71 25 99 26 95
3z m449 -62 c17 -19 17 -21 -9 -56 -43 -56 -70 -31 -41 39 17 41 26 44 50 17z
m-676 -43 c2 -13 -2 -15 -19 -11 -20 5 -21 3 -15 -20 7 -30 4 -32 -25 -17 -25
14 -24 35 4 55 27 19 51 16 55 -7z m754 -15 c15 -17 13 -20 -23 -45 -46 -33
-59 -21 -29 27 25 40 31 42 52 18z m-716 -24 c0 -8 -2 -18 -4 -23 -5 -10 -22
14 -22 32 0 18 25 9 26 -9z m445 5 c143 -43 240 -119 293 -233 33 -71 56 -159
56 -218 0 -16 -8 -23 -31 -28 -17 -4 -33 -5 -35 -2 -3 3 -12 35 -19 72 -20 93
-46 142 -108 204 -61 61 -146 105 -234 122 -42 8 -63 17 -66 28 -3 11 -5 10
-6 -5 -1 -19 -10 -23 -61 -32 -74 -13 -166 -61 -232 -120 -98 -89 -147 -250
-113 -368 24 -84 50 -130 109 -192 60 -64 109 -91 191 -108 48 -10 53 -12 25
-13 -51 -1 -165 31 -243 68 -51 24 -77 44 -102 79 -39 53 -76 154 -79 213 0
21 -5 39 -9 39 -20 0 19 213 49 273 27 51 131 147 188 173 66 30 186 56 243
53 23 -2 45 0 49 4 12 12 78 8 135 -9z m-561 -51 c0 -10 -6 -10 -25 3 -21 13
-23 19 -13 31 10 13 14 12 25 -3 7 -10 13 -24 13 -31z m900 -10 c0 -7 -4 -13
-9 -13 -5 0 -17 -7 -26 -16 -15 -15 -18 -15 -32 -1 -14 14 -14 18 8 45 22 27
26 28 42 14 9 -8 17 -21 17 -29z m-822 2 c-9 -9 -30 14 -23 25 6 9 10 8 17 -4
6 -10 8 -19 6 -21z m-1449 -96 c1 -75 2 -77 29 -84 47 -12 72 -43 72 -92 0
-25 -5 -53 -10 -64 -13 -23 -61 -49 -90 -49 -53 0 -110 61 -110 118 0 31 51
92 77 92 10 0 13 24 14 98 0 63 3 90 9 77 5 -11 9 -54 9 -96z m338 -119 c-8
-255 -2 -340 23 -340 29 0 62 -46 67 -94 5 -42 3 -48 -30 -81 -45 -45 -92 -48
-138 -7 -45 40 -52 106 -14 150 15 18 35 32 46 32 18 0 19 11 19 269 0 148 3
276 6 285 3 9 11 13 17 9 7 -4 8 -76 4 -223z m989 213 c7 -10 13 -27 13 -38 0
-19 0 -19 -13 -2 -13 16 -36 24 -36 11 0 -4 8 -13 18 -20 15 -12 15 -13 -10
-14 -14 0 -33 -3 -42 -6 -24 -9 -19 8 15 49 35 42 37 43 55 20z m-672 -19 c3
-9 6 -53 6 -99 0 -75 2 -84 20 -90 57 -18 80 -117 39 -168 -30 -39 -87 -54
-128 -33 -47 25 -68 74 -52 125 11 37 68 94 81 81 3 -3 6 41 8 98 3 95 11 124
26 86z m1287 -54 c71 -37 127 -100 88 -100 -31 0 -146 -110 -205 -195 l-34
-50 0 186 c0 102 2 188 5 191 9 9 107 -13 146 -32z m377 19 c7 -12 12 -22 10
-23 -58 -38 -57 -37 -69 -14 -10 18 -8 24 12 39 30 23 32 23 47 -2z m-543 -1
c2 -7 6 -97 7 -201 2 -144 0 -187 -9 -187 -7 0 -12 -3 -12 -7 6 -37 -5 -73
-29 -98 -36 -38 -94 -85 -106 -85 -5 0 -17 -6 -25 -14 -9 -8 -25 -16 -36 -18
-11 -1 -25 -9 -31 -17 -8 -10 -19 -4 -51 33 -113 128 -107 363 12 482 78 78
266 152 280 112z m-523 -60 c-15 -4 -33 -15 -39 -25 -21 -28 -23 -9 -3 24 17
29 21 31 44 20 l25 -12 -27 -7z m1108 -4 c0 -4 -8 -13 -17 -20 -17 -12 -16
-13 7 -14 l25 -1 -29 -16 c-27 -14 -30 -14 -43 3 -25 34 -14 49 40 53 9 0 17
-2 17 -5z m-1132 -62 c15 -10 7 -38 -13 -46 -17 -6 -55 4 -55 15 0 8 40 39 50
39 3 0 11 -4 18 -8z m-1811 -34 c-3 -7 -5 -2 -5 12 0 14 2 19 5 13 2 -7 2 -19
0 -25z m2985 7 c-3 -13 -52 -26 -65 -18 -15 9 24 34 48 31 11 -2 19 -7 17 -13z
m-1172 -60 c0 -25 -13 -31 -45 -21 -40 13 -45 23 -12 28 21 4 57 -1 57 -7z
m1180 0 c11 -13 8 -15 -18 -15 -50 0 -50 20 -1 29 4 0 12 -6 19 -14z m-1227
-42 l32 -18 -29 -3 c-26 -3 -45 10 -46 31 0 11 8 9 43 -10z m1212 -23 c23 0
42 -16 32 -27 -3 -3 -19 -2 -36 2 -26 5 -31 11 -30 33 1 17 3 21 6 10 3 -11
14 -18 28 -18z m-3125 16 c0 -2 -7 -6 -15 -10 -8 -3 -15 -1 -15 4 0 6 7 10 15
10 8 0 15 -2 15 -4z m1921 -56 c10 0 19 -11 21 -25 5 -23 2 -25 -28 -25 -19 0
-37 -1 -41 -2 -5 -2 -9 12 -11 31 -3 31 -2 33 20 27 13 -3 30 -6 39 -6z m1237
-27 c-4 -22 -57 -30 -69 -12 -12 20 -1 29 37 29 28 0 35 -4 32 -17z m-4941
-25 c-3 -8 -6 -5 -6 6 -1 11 2 17 5 13 3 -3 4 -12 1 -19z m2523 -292 c0 -199
-4 -317 -10 -321 -7 -4 -10 73 -10 223 0 126 -3 270 -6 320 -6 81 -5 92 10 92
14 0 16 -29 16 -314z m-2970 273 c0 -11 -4 -17 -10 -14 -5 3 -10 13 -10 21 0
8 5 14 10 14 6 0 10 -9 10 -21z m3619 -76 c4 -136 -11 -513 -20 -513 -5 0 -9
135 -9 300 0 240 3 300 13 300 10 0 14 -24 16 -87z m1754 31 c1 -5 -13 -10
-30 -12 -29 -3 -33 0 -33 22 0 24 1 25 31 12 17 -7 31 -17 32 -22z m-1213 11
c-9 -10 -9 -15 -1 -15 6 0 11 -4 11 -10 0 -14 -43 -13 -58 2 -23 23 -13 38 24
38 31 0 35 -2 24 -15z m1019 -73 c-5 -28 -18 -57 -28 -66 -17 -16 -17 -14 -5
36 7 29 15 66 19 83 5 25 8 27 16 13 6 -10 5 -35 -2 -66z m-3039 56 c0 -7 17
-21 38 -31 47 -22 168 -98 186 -118 8 -7 17 -25 20 -39 3 -14 3 -19 0 -13 -6
14 -20 4 -43 -32 -8 -12 -11 -14 -8 -4 5 15 -17 8 -82 -28 -2 -1 0 -10 4 -20
4 -10 9 -49 11 -86 4 -74 -6 -88 -45 -67 -18 9 -22 7 -30 -14 -11 -28 -48 -56
-74 -56 -12 0 -23 12 -30 31 -12 30 -13 31 -64 24 -59 -7 -59 -8 -41 62 10 40
9 48 -5 58 -26 19 -21 38 23 91 46 56 54 86 9 34 -17 -19 -50 -55 -73 -80
l-42 -45 -3 -87 c-1 -50 2 -95 9 -107 12 -23 -1 -29 -17 -8 -5 6 -15 45 -22
85 -12 70 -37 112 -65 112 -5 0 0 9 12 20 12 11 26 39 33 63 28 102 31 108 77
143 26 19 80 50 119 70 40 19 75 39 78 45 9 13 25 11 25 -3z m-699 -66 l134
-69 8 -53 c4 -30 19 -74 32 -98 22 -39 23 -47 11 -61 -7 -9 -16 -25 -19 -36
-41 -146 -48 -165 -68 -165 -23 0 -102 -38 -178 -87 l-54 -35 -133 69 -133 68
-7 45 c-9 56 -30 109 -55 136 -19 20 -17 54 1 54 5 0 19 33 31 73 12 39 24 77
28 84 3 6 51 35 106 64 55 28 109 58 120 65 11 8 25 14 31 14 6 0 72 -31 145
-68z m-919 28 c173 -53 252 -205 199 -380 -30 -99 -86 -155 -196 -197 -48 -19
-82 -38 -86 -49 -7 -18 -8 -17 -8 1 -1 16 -12 24 -44 32 -56 15 -147 76 -176
118 -13 19 -34 62 -48 97 -21 52 -24 72 -19 121 12 115 67 196 168 247 73 36
120 38 210 10z m-1687 -9 c54 -25 140 -118 154 -167 35 -126 -26 -261 -145
-326 -70 -37 -120 -43 -193 -22 -123 34 -194 131 -194 264 0 119 53 203 158
251 54 25 166 25 220 0z m5305 -8 c-24 -17 -35 -12 -27 11 4 9 14 12 27 9 l21
-6 -21 -14z m1198 21 c36 -10 27 -34 -13 -34 -33 0 -46 16 -28 33 8 8 12 8 41
1z m-19 -55 c35 -12 43 -34 9 -24 -21 7 -59 35 -47 35 3 0 20 -5 38 -11z
m-5435 -18 c4 -5 4 -15 1 -23 -4 -10 -67 -13 -320 -15 l-315 -1 0 24 0 24 314
0 c178 0 317 -4 320 -9z m4292 -1 c35 0 30 -16 -8 -24 -21 -4 -34 -2 -40 6
-12 21 -9 31 8 24 9 -3 27 -6 40 -6z m1129 -32 c36 -16 26 -32 -23 -36 -45 -3
-48 -1 -32 29 12 22 20 23 55 7z m-1125 -18 c-20 -13 -33 -13 -25 0 3 6 14 10
23 10 15 0 15 -2 2 -10z m60 -35 c0 -7 -8 -15 -17 -18 -10 -2 -26 -8 -35 -12
-13 -5 -20 -1 -27 16 -7 21 -5 25 23 35 33 12 56 3 56 -21z m880 27 c0 -5 -7
-17 -16 -28 -8 -10 -14 -14 -11 -9 2 6 7 18 10 28 7 17 17 23 17 9z m164 -38
c14 -5 13 -9 -6 -29 -21 -22 -24 -22 -40 -8 -10 9 -18 22 -18 30 0 13 36 18
64 7z m-1010 -32 c3 -5 -8 -22 -24 -37 -24 -23 -32 -26 -45 -15 -24 20 -18 39
18 49 43 12 45 12 51 3z m715 -9 c-15 -17 -78 -47 -85 -40 -3 2 9 10 25 17 17
7 36 18 42 26 6 8 16 14 21 14 6 0 4 -7 -3 -17z m-5139 -2 c14 -4 26 -15 28
-24 3 -16 -18 -17 -315 -15 l-318 3 -3 23 -3 22 293 -1 c161 -1 304 -4 318 -8z
m5371 -60 c-12 -21 -12 -21 -38 9 -21 25 -23 33 -12 46 11 13 15 12 37 -9 20
-21 22 -28 13 -46z m-2792 5 c21 -19 19 -42 -2 -29 -7 4 -24 6 -38 5 -32 -4
-48 24 -18 33 11 4 19 16 20 28 0 21 1 21 8 2 5 -11 18 -28 30 -39z m870 -127
c-1 -116 2 -143 15 -158 20 -22 20 -50 0 -79 -18 -26 -31 -28 -56 -5 -24 21
-23 55 2 78 18 17 20 31 20 167 0 101 3 147 10 143 7 -4 10 -58 9 -146z m1027
140 c3 -6 -7 -25 -24 -42 -26 -26 -33 -28 -46 -17 -23 18 -20 26 17 48 38 24
44 25 53 11z m561 -5 c-3 -3 -12 -4 -19 -1 -8 3 -5 6 6 6 11 1 17 -2 13 -5z
m268 -30 c16 -25 16 -27 -5 -48 -21 -21 -21 -21 -36 -2 -17 24 -18 48 -2 64
17 17 24 15 43 -14z m-388 0 c-3 -3 -12 -4 -19 -1 -8 3 -5 6 6 6 11 1 17 -2
13 -5z m-374 -28 c8 -20 -21 -76 -39 -76 -18 0 -31 29 -17 39 6 3 15 16 22 29
13 25 26 28 34 8z m-73 -11 c-7 -8 -17 -15 -22 -15 -6 0 -5 7 2 15 7 8 17 15
22 15 6 0 5 -7 -2 -15z m787 -31 c1 -5 -13 -19 -32 -32 -28 -18 -40 -20 -55
-12 -20 11 -26 31 -13 44 4 4 16 -3 26 -16 l19 -23 -7 29 c-8 36 11 51 39 32
11 -7 21 -17 23 -22z m-5249 0 c16 -5 22 -13 20 -28 -2 -11 -6 -20 -10 -18 -5
1 -147 2 -318 2 -294 0 -310 1 -310 18 0 10 3 22 7 25 8 9 580 9 611 1z m4600
-34 c4 -37 -7 -53 -31 -44 -20 7 -21 24 -5 59 15 34 32 27 36 -15z m537 -11
c5 -13 1 -27 -8 -36 -13 -13 -16 -11 -25 15 -6 17 -8 33 -5 36 13 13 32 5 38
-15z m-458 -25 c-7 -44 -9 -46 -31 -38 -10 4 -15 13 -12 21 3 8 6 23 6 34 0
13 7 19 21 19 19 0 21 -4 16 -36z m398 6 c19 -36 19 -37 0 -44 -19 -7 -48 55
-31 66 15 10 14 11 31 -22z m-324 10 c13 -8 19 -21 19 -45 0 -31 -3 -35 -25
-33 -22 2 -25 7 -25 45 0 46 2 48 31 33z m270 -27 c6 -18 6 -30 0 -36 -14 -14
-19 -7 -27 31 -8 40 12 44 27 5z m-161 -23 c0 -36 -2 -40 -17 -32 -10 5 -24 7
-30 5 -9 -3 -13 5 -13 25 0 35 6 42 37 42 20 0 23 -5 23 -40z m98 2 c3 -28 0
-32 -22 -32 -23 0 -26 4 -26 35 0 31 3 34 23 31 17 -2 23 -11 25 -34z m-4938
-52 c0 -20 -7 -20 -315 -20 -308 0 -315 0 -315 20 0 20 7 20 315 20 308 0 315
0 315 -20z m3104 -32 c21 -29 20 -41 -2 -68 -18 -22 -19 -22 -45 -5 -31 20
-35 50 -10 77 21 24 39 23 57 -4z m644 10 c17 -17 15 -49 -4 -76 -21 -31 -38
-28 -59 12 -19 34 -19 36 0 55 20 24 45 27 63 9z m-1478 -78 c0 -5 -9 -10 -19
-10 -11 0 -23 5 -26 10 -4 6 5 10 19 10 14 0 26 -4 26 -10z m-1249 -72 c10
-18 8 -24 -11 -40 -12 -10 -28 -18 -35 -18 -15 0 -45 27 -45 40 0 17 32 40 55
40 15 0 29 -9 36 -22z m3227 -82 c41 -7 81 -21 90 -30 15 -15 6 -16 -122 -16
-121 0 -137 2 -132 16 3 8 2 12 -4 9 -6 -3 -10 -2 -10 3 0 8 64 28 95 30 6 1
43 -5 83 -12z"/>
<path d="M3770 8300 l0 -50 43 6 c51 8 67 20 67 48 0 33 -19 46 -67 46 l-43 0
0 -50z"/>
<path d="M5657 7883 c-4 -3 -7 -91 -7 -195 l0 -188 185 0 185 0 0 195 0 195
-178 0 c-98 0 -182 -3 -185 -7z"/>
<path d="M5650 7405 l0 -85 90 -45 c50 -25 104 -45 122 -45 20 0 54 15 95 41
l63 41 0 89 0 89 -185 0 -185 0 0 -85z"/>
<path d="M1905 7910 c-151 -63 -201 -183 -134 -325 63 -134 283 -166 407 -59
133 113 72 348 -103 393 -83 21 -99 20 -170 -9z m137 -129 c40 -47 52 -86 38
-121 -13 -32 -65 -70 -97 -70 -10 0 -35 17 -55 38 -31 30 -37 44 -36 77 1 89
99 138 150 76z"/>
<path d="M4689 6831 c-52 -52 -51 -79 4 -138 37 -39 48 -45 70 -39 42 10 81
70 81 124 1 41 -2 48 -33 69 -49 33 -77 29 -122 -16z m120 -7 c17 -14 31 -32
31 -40 0 -29 -41 -95 -67 -107 -24 -11 -29 -8 -64 32 -47 52 -48 73 -10 112
36 36 70 37 110 3z"/>
<path d="M4741 6791 c-21 -13 -5 -41 23 -41 30 0 42 16 26 35 -14 17 -29 19
-49 6z"/>
<path d="M1814 6809 c-8 -14 42 -66 53 -55 4 4 -5 17 -22 29 l-30 22 35 6 35
6 -32 2 c-17 0 -35 -4 -39 -10z"/>
<path d="M1916 6805 c-12 -13 -13 -22 -2 -58 14 -48 33 -56 70 -31 28 17 34
51 16 85 -13 23 -62 26 -84 4z m75 -22 c12 -33 7 -49 -20 -56 -39 -10 -67 43
-39 71 20 20 48 14 59 -15z"/>
<path d="M2030 6771 c0 -28 5 -53 10 -56 6 -4 10 7 10 24 0 29 3 31 35 31 31
0 35 3 35 25 0 23 -4 25 -45 25 l-45 0 0 -49z m71 24 c0 -5 -12 -11 -26 -13
-18 -2 -25 1 -25 13 0 12 7 15 25 13 14 -2 26 -7 26 -13z"/>
<path d="M2147 6813 c-2 -5 -1 -18 2 -30 5 -18 9 -20 21 -12 11 8 12 12 3 16
-18 7 -16 21 5 26 13 4 12 5 -5 6 -12 0 -24 -2 -26 -6z"/>
<path d="M2450 6812 c0 -6 7 -12 15 -16 19 -7 20 -59 2 -75 -10 -8 -17 -7 -26
2 -11 10 -13 9 -9 -3 8 -26 47 -24 57 3 13 33 -1 91 -22 95 -9 2 -17 -1 -17
-6z"/>
<path d="M2532 6808 c-15 -15 -16 -63 -2 -89 12 -22 52 -25 69 -6 18 23 25 75
11 92 -15 18 -61 20 -78 3z m64 -24 c8 -31 -10 -74 -31 -74 -22 0 -39 49 -26
77 15 32 49 30 57 -3z"/>
<path d="M2638 6808 c-3 -7 -2 -33 1 -58 5 -40 9 -45 33 -48 34 -4 61 33 56
80 -3 31 -6 33 -44 36 -27 2 -43 -1 -46 -10z m72 -29 c0 -61 -41 -95 -54 -44
-11 42 3 75 30 75 20 0 24 -5 24 -31z"/>
<path d="M2767 6813 c-13 -12 -7 -68 9 -91 19 -27 60 -29 74 -3 12 24 13 101
1 101 -5 0 -9 -15 -9 -34 0 -51 -11 -76 -33 -76 -20 0 -23 13 -21 78 1 30 -7
40 -21 25z"/>
<path d="M2978 6813 c-14 -3 -18 -15 -18 -54 0 -27 4 -49 9 -49 6 0 7 16 4 35
-4 26 -1 41 12 55 10 11 16 19 14 19 -2 -1 -12 -3 -21 -6z"/>
<path d="M2880 6801 c0 -5 5 -13 10 -16 6 -3 10 -2 10 4 0 5 -4 13 -10 16 -5
3 -10 2 -10 -4z"/>
<path d="M2916 6793 c-13 -49 -17 -83 -8 -83 5 0 14 23 19 50 6 28 7 50 2 50
-4 0 -10 -8 -13 -17z"/>
<path d="M4448 6803 c-10 -2 -18 -12 -18 -21 0 -14 2 -15 9 -3 7 11 31 15 84
15 41 1 73 4 70 9 -4 7 -116 8 -145 0z"/>
<path d="M4449 6747 c10 -13 28 -17 75 -15 l61 1 -60 6 c-33 3 -67 10 -75 15
-13 9 -13 8 -1 -7z"/>
<path d="M1874 6737 c-8 -22 -42 -31 -60 -16 -12 10 -13 9 -8 -5 3 -9 16 -16
29 -16 23 0 63 35 52 46 -4 4 -9 0 -13 -9z"/>
<path d="M2150 6719 c0 -5 9 -9 20 -9 11 0 20 2 20 4 0 2 -9 6 -20 9 -11 3
-20 1 -20 -4z"/>
<path d="M4056 6374 c-4 -9 -4 -19 -1 -22 2 -3 7 3 11 12 4 9 4 19 1 22 -2 3
-7 -3 -11 -12z"/>
<path d="M2740 6390 c-8 -26 -7 -41 2 -32 6 6 8 16 5 24 -3 7 -6 11 -7 8z"/>
<path d="M3311 6374 c0 -11 3 -14 6 -6 3 7 2 16 -1 19 -3 4 -6 -2 -5 -13z"/>
<path d="M5462 6247 c-30 -32 -31 -110 -1 -130 27 -19 57 -11 97 26 36 34 41
69 16 105 -21 31 -83 31 -112 -1z m68 -37 c26 -26 25 -56 -2 -71 -18 -10 -24
-8 -40 11 -21 26 -23 51 -6 68 17 17 25 15 48 -8z"/>
<path d="M5500 6194 c0 -8 5 -12 10 -9 6 3 10 10 10 16 0 5 -4 9 -10 9 -5 0
-10 -7 -10 -16z"/>
<path d="M6575 5620 c-3 -5 -21 -10 -39 -10 -56 0 -139 -31 -208 -77 -37 -25
-72 -42 -77 -38 -7 4 -8 -1 -4 -12 3 -10 -19 6 -48 35 -30 28 -58 52 -62 52
-3 0 13 -20 37 -44 49 -49 76 -89 53 -80 -18 7 -95 -144 -105 -206 -9 -51 10
-199 34 -272 16 -48 49 -83 154 -162 66 -50 131 -74 217 -81 73 -6 61 3 -37
25 -65 14 -172 74 -217 122 -42 43 -82 133 -96 212 -9 52 -8 75 6 132 48 195
175 316 356 340 50 6 51 7 51 40 0 35 -4 42 -15 24z"/>
<path d="M7002 5527 l-91 -92 30 -35 c42 -48 65 -96 87 -177 l19 -68 123 -3
123 -3 -7 88 c-4 48 -7 106 -7 127 1 29 -6 45 -24 62 -14 13 -25 32 -25 43 0
11 -12 34 -27 53 -38 45 -43 50 -79 75 l-31 22 -91 -92z"/>
<path d="M6457 5496 c-83 -30 -130 -64 -168 -124 -38 -60 -69 -144 -69 -186 0
-29 4 -34 33 -42 l32 -8 -32 -3 c-39 -5 -40 -13 -12 -95 35 -106 88 -168 187
-217 49 -25 142 -45 154 -33 4 4 5 76 1 160 l-6 152 -28 0 c-20 0 -39 -13 -74
-52 -36 -40 -46 -47 -40 -28 10 34 40 75 73 101 l27 21 -97 -4 c-94 -3 -98 -2
-92 17 4 11 11 25 16 30 7 7 8 3 3 -12 -6 -22 -4 -23 64 -23 41 0 71 4 71 10
0 6 12 10 28 10 27 0 27 1 -18 43 -25 23 -80 71 -123 106 -42 35 -75 66 -72
69 5 5 33 -13 185 -124 41 -30 78 -54 82 -54 5 0 8 70 8 155 l0 155 -32 0
c-18 0 -64 -11 -101 -24z m-60 -533 c-3 -10 -5 -4 -5 12 0 17 2 24 5 18 2 -7
2 -21 0 -30z"/>
<path d="M6601 5433 c1 -48 4 -118 8 -155 l6 -67 62 47 c34 26 90 69 123 96
114 90 72 33 -68 -93 -45 -40 -82 -76 -82 -80 0 -20 78 -32 196 -30 l126 1 -6
50 c-22 163 -150 291 -313 313 l-53 7 1 -89z"/>
<path d="M7302 5240 c0 -14 2 -19 5 -12 2 6 2 18 0 25 -3 6 -5 1 -5 -13z"/>
<path d="M6836 5120 c7 -7 19 -7 35 -1 23 9 22 10 -10 10 -24 1 -32 -2 -25 -9z"/>
<path d="M6900 5114 c0 -11 6 -14 20 -9 18 6 20 2 20 -42 1 -56 15 -42 26 25
l7 42 -37 0 c-26 0 -36 -4 -36 -16z m57 -26 c-3 -7 -5 -2 -5 12 0 14 2 19 5
13 2 -7 2 -19 0 -25z"/>
<path d="M6607 5088 c-2 -7 -2 -79 1 -160 l5 -148 26 0 c37 0 93 17 116 35 17
12 17 14 3 9 -11 -4 -18 -1 -18 6 0 6 -6 8 -12 4 -7 -4 -10 -4 -6 1 4 4 3 14
-3 21 -16 20 -17 150 -1 147 16 -4 15 12 -2 26 -11 9 -15 9 -20 -1 -3 -7 -3
-3 -1 8 10 38 -74 87 -88 52z"/>
<path d="M7041 5074 c0 -11 3 -14 6 -6 3 7 2 16 -1 19 -3 4 -6 -2 -5 -13z"/>
<path d="M6688 4723 c7 -3 16 -2 19 1 4 3 -2 6 -13 5 -11 0 -14 -3 -6 -6z"/>
<path d="M1962 6117 c-30 -32 -27 -40 8 -22 16 8 31 15 35 15 3 0 5 -41 5 -90
0 -87 -1 -91 -25 -100 -36 -14 -31 -20 18 -20 l42 0 -3 107 c-3 85 -7 111 -20
121 -23 17 -36 15 -60 -11z"/>
<path d="M2608 6123 c-17 -4 -34 -40 -24 -50 3 -3 17 4 32 16 34 27 59 27 78
-1 24 -34 20 -41 -40 -78 -72 -43 -84 -56 -84 -86 0 -24 1 -24 90 -24 50 0 90
4 90 9 0 9 -58 21 -107 21 -46 0 -41 15 15 46 70 41 82 53 82 90 0 52 -57 77
-132 57z"/>
<path d="M3279 6133 c-17 -4 -44 -52 -34 -61 3 -3 17 6 31 21 28 31 50 34 82
11 38 -26 26 -64 -30 -94 -63 -34 -89 -60 -86 -84 3 -19 11 -21 86 -24 78 -3
82 -2 82 19 0 17 -4 20 -22 16 -82 -20 -98 -20 -98 0 0 26 29 51 69 59 84 17
57 146 -31 143 -18 -1 -40 -3 -49 -6z"/>
<path d="M4014 6129 c-40 -11 -44 -29 -37 -135 6 -79 7 -83 35 -95 30 -12 94
-7 111 10 15 15 18 186 4 204 -15 20 -73 28 -113 16z m84 -56 c3 -33 3 -33
-42 -33 -42 0 -46 2 -46 25 0 28 25 46 60 42 20 -2 26 -8 28 -34z m-8 -103 c0
-46 -7 -52 -49 -44 -25 5 -32 13 -37 40 -8 44 -2 50 45 46 40 -4 41 -5 41 -42z"/>
<path d="M3862 6107 c-12 -13 -22 -32 -22 -43 1 -18 1 -18 14 -1 7 9 16 17 20
17 3 0 6 -42 6 -93 0 -98 3 -109 26 -100 11 4 14 31 14 124 0 109 -2 119 -18
119 -10 0 -28 -10 -40 -23z"/>
<path d="M4652 6143 c-37 -7 -58 -93 -30 -121 21 -21 28 -13 28 33 0 40 3 47
26 56 32 12 61 4 68 -19 2 -9 1 -48 -2 -87 l-7 -70 -34 -3 c-23 -2 -40 3 -55
17 -24 23 -36 19 -36 -10 0 -28 35 -40 108 -37 l67 3 3 85 c4 111 -1 128 -43
146 -34 14 -50 15 -93 7z"/>
<path d="M4501 6114 c-17 -14 -31 -32 -31 -40 0 -18 14 -18 30 1 25 30 31 13
30 -82 -1 -54 -1 -102 -1 -106 1 -4 10 -3 21 3 18 10 20 21 20 130 0 112 -1
120 -19 120 -11 0 -33 -12 -50 -26z"/>
<path d="M5930 4601 c0 -5 5 -13 10 -16 6 -3 10 -2 10 4 0 5 -4 13 -10 16 -5
3 -10 2 -10 -4z"/>
<path d="M6806 4481 c-4 -7 -5 -15 -2 -18 9 -9 19 4 14 18 -4 11 -6 11 -12 0z"/>
<path d="M1998 5599 c-10 -5 -18 -18 -18 -28 0 -18 1 -18 38 0 20 11 48 18 62
17 21 -3 25 -8 24 -35 -2 -39 2 -40 27 -10 24 28 24 44 0 57 -25 13 -111 13
-133 -1z"/>
<path d="M1861 5574 c-27 -35 -16 -52 16 -22 l24 23 -3 -103 c-3 -92 -1 -102
15 -102 16 0 17 10 15 113 -3 106 -4 112 -24 115 -14 2 -29 -7 -43 -24z"/>
<path d="M2045 5495 c-44 -16 -65 -38 -65 -70 0 -42 22 -57 84 -59 68 -1 86
15 86 79 0 66 -26 78 -105 50z m63 -27 c17 -17 15 -44 -4 -62 -20 -21 -78 -20
-99 0 -24 24 -14 47 25 61 45 15 63 16 78 1z"/>
<path d="M2627 5568 c-44 -55 -57 -80 -57 -112 0 -25 3 -26 53 -27 65 -1 92
-10 92 -29 0 -8 7 -15 15 -15 13 0 14 17 11 105 -2 58 -5 108 -8 113 -2 4 -19
7 -38 7 -28 0 -40 -8 -68 -42z m71 -49 l-3 -54 -42 -3 c-24 -2 -43 0 -43 3 0
19 74 125 82 117 5 -5 8 -33 6 -63z"/>
<path d="M3184 5591 c-53 -32 -53 -47 -1 -42 15 2 17 -8 17 -93 0 -77 3 -96
14 -96 10 0 17 15 21 43 9 60 2 200 -10 204 -5 1 -24 -6 -41 -16z"/>
<path d="M3309 5594 c-15 -18 -25 -130 -15 -169 16 -63 87 -85 140 -44 27 21
33 56 19 108 -6 22 -9 23 -74 19 l-69 -5 7 26 c10 44 23 52 72 49 42 -3 46 -5
51 -33 6 -29 6 -29 12 -6 4 13 3 34 -2 47 -9 22 -15 24 -69 24 -42 0 -62 -5
-72 -16z m98 -102 c6 -4 15 -20 18 -35 13 -50 -53 -91 -84 -53 -20 24 -9 69
19 83 29 15 31 15 47 5z"/>
<path d="M3862 5590 c-33 -20 -50 -45 -38 -57 3 -4 12 -1 18 5 29 29 38 13 38
-65 0 -91 7 -123 26 -123 11 0 14 26 14 130 0 143 -1 145 -58 110z"/>
<path d="M3990 5596 c-14 -18 -10 -58 7 -63 6 -2 14 5 18 17 4 12 18 26 31 32
19 9 28 8 44 -7 30 -27 25 -41 -33 -83 -68 -51 -79 -65 -75 -99 3 -27 4 -28
74 -31 86 -3 107 10 97 61 -3 18 -10 40 -15 50 -5 10 -5 24 2 36 14 26 13 74
-2 89 -18 18 -133 16 -148 -2z m120 -151 c0 -29 -5 -37 -27 -46 -68 -26 -94
18 -34 58 48 32 61 30 61 -12z"/>
<path d="M4498 5597 c-29 -24 -38 -57 -15 -57 7 0 18 5 24 11 8 8 13 -9 18
-65 4 -42 5 -87 3 -101 -4 -21 -1 -25 19 -25 l24 0 -5 128 c-2 70 -5 128 -5
130 -4 9 -41 -3 -63 -21z"/>
<path d="M4638 5609 c-22 -12 -23 -52 -3 -69 12 -10 15 -10 15 3 0 25 29 47
61 47 22 0 30 -5 35 -26 7 -29 -21 -64 -88 -110 -28 -20 -38 -34 -38 -54 0
-32 14 -40 75 -40 72 0 95 14 95 55 0 22 -6 38 -15 41 -13 5 -13 8 0 27 24 34
20 103 -7 121 -25 18 -104 21 -130 5z m102 -205 c-16 -19 -76 -18 -84 1 -6 15
18 32 63 45 21 5 27 3 29 -12 2 -11 -2 -26 -8 -34z"/>
<path d="M2050 5057 c-14 -7 -26 -21 -29 -32 -3 -18 -2 -18 23 -2 l26 17 1
-82 c1 -46 3 -90 4 -98 1 -8 3 -20 4 -26 0 -7 8 -14 16 -18 13 -5 15 13 15
124 0 142 -2 146 -60 117z"/>
<path d="M1863 5048 c-13 -6 -23 -18 -23 -27 0 -12 3 -12 12 -3 7 7 19 12 28
12 12 0 15 -16 15 -102 0 -68 4 -103 12 -105 8 -3 13 29 18 106 4 61 7 114 7
118 -2 13 -45 13 -69 1z"/>
<path d="M2533 5054 c-18 -14 -33 -32 -33 -40 0 -18 15 -18 34 1 8 8 18 15 21
15 4 0 5 -44 3 -97 -2 -82 -1 -98 12 -98 12 0 15 20 15 119 0 71 -4 121 -10
123 -5 1 -25 -9 -42 -23z"/>
<path d="M2722 5069 c-53 -10 -62 -15 -62 -40 0 -20 19 -25 36 -10 5 5 19 12
32 16 23 7 23 6 20 -86 -3 -90 -4 -93 -28 -99 -24 -6 -24 -6 8 -19 57 -24 62
-15 62 118 0 86 -3 120 -12 123 -7 3 -32 1 -56 -3z"/>
<path d="M3176 5061 c-16 -11 -33 -27 -38 -35 -13 -23 18 -32 41 -12 20 18 36
21 25 5 -3 -6 -3 -53 1 -105 5 -68 11 -94 20 -94 10 0 14 28 17 113 2 61 2
120 0 130 -6 22 -30 22 -66 -2z"/>
<path d="M3311 5044 c-33 -41 -3 -64 32 -24 10 12 29 20 46 20 33 0 35 -2 45
-42 4 -20 2 -28 -11 -33 -10 -3 -31 -17 -48 -31 l-30 -26 32 16 c47 24 63 21
63 -12 0 -56 -53 -70 -97 -26 -20 20 -28 23 -34 12 -26 -40 1 -58 88 -58 l72
0 6 33 c4 18 2 45 -4 60 -6 16 -8 46 -5 68 9 56 -6 69 -76 69 -51 0 -61 -3
-79 -26z m136 -36 c-3 -8 -6 -5 -6 6 -1 11 2 17 5 13 3 -3 4 -12 1 -19z"/>
<path d="M3800 5048 c-10 -17 -17 -35 -14 -40 10 -16 36 -8 56 17 21 27 47 32
66 13 24 -24 12 -48 -41 -82 -49 -32 -77 -68 -77 -100 0 -21 19 -24 98 -18 85
6 94 25 14 30 -29 2 -52 7 -52 12 0 6 19 24 43 40 69 50 77 59 77 84 0 13 -9
35 -21 50 -18 22 -28 26 -75 26 -50 0 -56 -2 -74 -32z"/>
<path d="M4030 5073 c-20 -8 -30 -24 -30 -50 0 -28 10 -29 33 -2 12 13 27 19
45 17 22 -2 28 -9 30 -35 2 -21 -1 -33 -9 -33 -7 0 -9 -3 -5 -7 4 -4 -8 -15
-26 -25 l-33 -17 43 -1 c35 0 42 -3 42 -20 0 -28 -46 -38 -83 -17 -32 19 -47
15 -47 -13 0 -26 30 -40 85 -40 71 0 85 12 85 71 0 36 -4 51 -16 56 -13 5 -12
8 5 25 27 25 26 44 -4 73 -24 25 -76 32 -115 18z"/>
<path d="M4495 5073 c-29 -7 -45 -23 -45 -44 0 -28 19 -33 44 -10 25 24 46 27
64 9 23 -23 14 -57 -20 -74 -73 -37 -113 -102 -72 -118 9 -3 47 -6 86 -6 51 0
69 3 66 13 -3 7 -28 13 -64 15 -32 2 -62 6 -67 11 -4 4 20 24 52 46 65 41 77
65 60 115 -15 41 -50 56 -104 43z"/>
<path d="M4700 5073 c-35 -7 -50 -22 -50 -50 l0 -25 31 27 c18 14 41 25 53 23
17 -2 21 -10 22 -45 1 -38 -1 -43 -22 -43 -12 0 -29 -3 -38 -6 -29 -11 -16
-20 24 -16 44 5 57 -10 46 -52 -8 -33 -40 -41 -82 -21 -39 18 -54 14 -47 -15
7 -28 73 -45 119 -30 45 15 58 41 49 99 -5 25 -7 65 -6 87 2 34 -2 45 -21 58
-23 16 -32 17 -78 9z"/>
<path d="M1970 4534 c0 -13 7 -15 30 -11 57 12 60 6 60 -119 0 -107 1 -114 20
-114 19 0 20 7 20 111 0 140 -4 149 -75 149 -44 0 -55 -3 -55 -16z"/>
<path d="M1852 4514 c-12 -8 -22 -24 -22 -35 0 -17 3 -18 21 -9 11 7 23 9 27
6 3 -4 8 -47 10 -96 3 -50 8 -90 13 -90 5 0 9 54 9 120 0 108 -2 120 -18 120
-10 0 -28 -7 -40 -16z"/>
<path d="M2470 4530 c-23 -23 -27 -60 -7 -60 8 0 24 11 37 25 35 37 74 31 78
-12 3 -30 -1 -35 -51 -63 -124 -70 -125 -130 -2 -130 72 0 95 6 95 26 0 14
-21 13 -68 -2 -8 -2 -25 -1 -38 2 -44 11 -27 45 39 77 79 37 99 86 52 132 -32
33 -105 35 -135 5z"/>
<path d="M2665 4530 c-12 -13 -15 -27 -11 -45 8 -33 22 -32 41 5 22 42 67 42
85 1 6 -17 9 -34 6 -40 -4 -5 -36 -31 -71 -57 -97 -71 -84 -104 40 -104 73 0
84 9 68 57 -13 37 -32 42 -30 7 2 -24 -3 -29 -33 -35 -41 -9 -73 -2 -67 14 2
7 24 26 50 43 76 50 87 63 87 105 0 50 -27 69 -96 69 -38 0 -55 -5 -69 -20z"/>
<path d="M3138 4530 c-16 -12 -28 -28 -28 -36 0 -21 44 -17 65 6 34 37 85 17
85 -34 0 -9 -32 -36 -70 -61 -75 -48 -90 -67 -73 -94 8 -12 27 -16 89 -16 72
0 93 6 94 28 0 4 -30 7 -66 7 -74 0 -80 11 -23 47 75 48 89 63 89 97 0 44 -29
68 -87 73 -39 4 -53 1 -75 -17z"/>
<path d="M3336 4528 c-8 -33 -7 -68 2 -68 5 0 18 14 30 30 27 36 66 40 82 9
17 -32 5 -62 -35 -83 -19 -11 -47 -35 -62 -54 -39 -51 -25 -66 66 -70 66 -3
72 -1 80 20 12 32 -3 44 -30 24 -33 -23 -89 -22 -89 2 0 23 24 44 67 61 44 18
55 34 55 78 0 53 -28 73 -102 73 -51 0 -58 -2 -64 -22z"/>
<path d="M4029 4546 c-17 -8 -25 -21 -27 -45 l-3 -34 32 27 c45 38 83 33 87
-12 4 -38 -10 -59 -40 -64 -11 -2 -28 -14 -37 -28 l-15 -25 23 20 c13 11 33
18 48 17 13 -2 33 4 44 14 25 23 26 95 2 116 -25 21 -85 29 -114 14z"/>
<path d="M3807 4532 c-18 -20 -23 -57 -8 -67 5 -3 19 8 31 25 26 37 73 42 90
9 15 -26 -6 -59 -58 -94 -76 -50 -97 -78 -81 -107 17 -31 189 -21 189 12 0 6
-29 10 -70 10 -41 0 -70 4 -70 10 0 6 21 24 48 39 103 64 115 81 91 134 -14
31 -48 47 -103 47 -29 0 -48 -6 -59 -18z"/>
<path d="M4000 4326 c-5 -5 -6 -15 -3 -22 4 -10 26 -14 84 -14 75 0 79 1 79
23 0 21 -4 22 -75 22 -42 0 -80 -4 -85 -9z"/>
<path d="M4655 4535 c-14 -13 -25 -34 -25 -45 0 -23 10 -20 46 12 15 13 33 18
55 16 28 -2 35 -7 37 -30 4 -31 -14 -71 -28 -63 -5 3 -11 1 -15 -5 -10 -17 52
-12 69 6 9 9 16 32 16 54 0 30 -6 43 -26 59 -38 30 -98 28 -129 -4z"/>
<path d="M4452 4538 c-16 -16 -15 -48 1 -48 6 1 23 7 37 15 40 23 69 19 76
-10 9 -38 0 -52 -56 -80 -29 -15 -59 -39 -70 -58 -24 -39 -24 -41 -4 -61 16
-17 63 -20 127 -10 30 6 37 11 37 30 0 21 -3 23 -26 14 -28 -11 -87 -13 -97
-4 -13 14 9 37 62 64 32 15 63 35 70 44 18 22 6 82 -22 101 -26 18 -118 20
-135 3z"/>
<path d="M4682 4405 c0 -16 2 -22 5 -12 2 9 2 23 0 30 -3 6 -5 -1 -5 -18z"/>
<path d="M4770 4355 l0 -36 -52 7 c-64 8 -74 14 -25 14 21 0 37 5 37 10 0 14
-43 13 -75 -2 -28 -13 -33 -43 -9 -52 9 -3 46 -6 84 -6 l68 0 4 39 c4 48 1 61
-18 61 -9 0 -14 -12 -14 -35z"/>
<path d="M5454 4192 c-40 -27 -47 -126 -10 -161 28 -26 85 -37 114 -22 45 24
36 143 -13 175 -25 17 -72 21 -91 8z m84 -71 c6 -55 -5 -81 -33 -81 -14 0 -25
5 -25 10 0 6 9 10 20 10 13 0 20 7 20 20 0 11 1 23 3 27 1 4 -6 9 -15 11 -14
3 -18 -3 -18 -23 0 -15 -4 -24 -10 -20 -5 3 -10 19 -10 34 0 60 63 71 68 12z"/>
<path d="M7650 4133 c0 -5 5 -15 10 -23 8 -12 10 -11 10 8 0 12 -4 22 -10 22
-5 0 -10 -3 -10 -7z"/>
<path d="M4610 3584 c5 -32 15 -52 31 -64 27 -21 86 -40 123 -40 15 0 25 -4
22 -9 -8 -12 -94 4 -138 25 -21 10 -41 14 -45 10 -4 -4 7 -34 25 -66 37 -68
43 -124 13 -140 -25 -13 -41 -13 -41 1 0 6 9 13 20 16 24 6 36 39 20 58 -8 10
-17 12 -29 6 -11 -7 -21 -5 -32 5 -14 13 -18 13 -29 -1 -17 -20 -4 -66 20 -72
10 -3 19 -12 20 -21 0 -10 4 -49 8 -88 l7 -71 72 31 c40 18 84 43 98 56 14 13
25 18 25 12 0 -22 -42 -54 -115 -87 -40 -18 -75 -41 -79 -50 -6 -16 -9 -55 -3
-55 1 0 42 20 92 45 49 25 95 45 102 45 8 0 18 10 23 23 17 40 41 148 35 157
-9 15 -145 13 -145 -2 -1 -7 -7 5 -15 27 -17 47 -15 52 10 25 21 -23 90 -28
98 -7 4 10 6 10 6 0 1 -8 14 -13 32 -13 29 0 30 2 24 30 -20 90 -42 154 -55
160 -14 7 -188 92 -201 98 -3 1 -3 -18 1 -44z m35 -314 c-3 -5 -13 -10 -21
-10 -8 0 -14 5 -14 10 0 6 9 10 21 10 11 0 17 -4 14 -10z"/>
<path d="M4468 3569 l-97 -49 -10 -52 c-6 -29 -13 -70 -17 -91 l-6 -38 76 5
c81 5 106 1 106 -18 0 -8 -28 -10 -93 -8 l-94 3 13 -58 c7 -32 16 -75 19 -95
3 -21 12 -38 19 -38 7 0 52 -20 99 -45 48 -25 89 -45 92 -45 3 0 5 17 5 38 0
34 -4 40 -36 56 -20 9 -34 20 -30 23 3 4 12 1 18 -5 7 -7 22 -12 33 -12 20 0
21 4 17 58 -2 35 -11 66 -23 82 -28 37 -50 92 -44 108 3 8 14 16 25 19 11 3
20 12 20 19 0 24 17 15 24 -11 4 -14 13 -25 22 -25 15 0 13 10 -10 39 -6 8
-11 53 -11 99 0 48 -4 86 -10 88 -5 1 -54 -20 -107 -47z m-18 -93 c0 -11 -19
-15 -25 -6 -3 5 1 10 9 10 9 0 16 -2 16 -4z"/>
<path d="M5375 3515 l-40 -13 56 5 c33 3 64 1 77 -6 15 -8 22 -8 22 -1 0 11
-42 31 -63 29 -7 0 -30 -7 -52 -14z"/>
<path d="M5267 3443 c-4 -3 -6 -29 -6 -57 l2 -51 7 40 c4 22 10 48 15 58 7 17
-5 24 -18 10z"/>
<path d="M5382 3388 c-30 -30 4 -108 47 -108 21 0 61 40 61 61 0 43 -78 77
-108 47z"/>
<path d="M5260 3295 c0 -8 5 -15 10 -15 6 0 10 7 10 15 0 8 -4 15 -10 15 -5 0
-10 -7 -10 -15z"/>
<path d="M5280 3232 c0 -14 77 -81 106 -92 60 -23 59 -1 -1 40 -25 17 -45 28
-45 25 0 -4 -13 3 -30 15 -16 12 -30 17 -30 12z"/>
<path d="M3634 3576 c-88 -41 -154 -145 -154 -240 0 -41 39 -123 80 -170 42
-48 118 -86 170 -86 46 0 162 54 197 92 13 13 32 51 43 83 26 74 20 138 -18
209 -31 57 -71 90 -142 117 -66 25 -114 24 -176 -5z m45 -53 c-13 -15 -12 -16
6 -8 32 13 135 15 135 3 0 -6 3 -8 7 -5 9 10 63 -43 63 -61 0 -9 -7 -6 -21 9
l-21 24 7 -25 c3 -14 8 -54 11 -90 11 -128 -44 -190 -169 -190 -49 0 -56 3
-92 40 -35 36 -39 46 -43 102 -4 47 -7 58 -14 43 -6 -15 -7 -11 -3 13 3 19 19
53 37 75 l32 42 -34 -30 -34 -30 21 35 c16 25 35 40 70 52 60 21 58 21 42 1z
m292 -175 c2 -61 -26 -130 -67 -169 -25 -24 -143 -69 -179 -69 -18 0 -23 4
-19 15 4 8 11 15 18 15 26 0 165 63 197 89 32 27 34 32 37 105 5 88 11 95 13
14z m-376 -144 c20 -20 35 -38 33 -40 -3 -2 -22 14 -43 36 -22 22 -36 40 -32
40 3 0 23 -16 42 -36z"/>
<path d="M3735 3461 c-12 -5 -24 -25 -32 -57 -6 -26 -11 -50 -9 -51 2 -2 20
12 41 32 22 19 35 35 30 35 -5 0 -17 -7 -27 -17 -19 -17 -22 -12 -12 25 5 18
13 22 33 20 14 -2 25 -8 24 -15 -2 -6 6 -11 16 -10 16 1 17 5 10 19 -5 10 -14
18 -19 18 -4 0 -14 2 -22 4 -7 3 -22 1 -33 -3z"/>
<path d="M3595 3350 c-24 -47 -19 -77 23 -122 50 -54 66 -44 42 24 -13 38 -15
59 -9 77 21 54 -29 74 -56 21z"/>
<path d="M3721 3328 c-10 -30 -9 -31 4 -14 8 11 15 26 15 33 0 22 -8 14 -19
-19z"/>
<path d="M3821 3349 c-2 -31 -36 -60 -86 -73 -46 -12 -50 -15 -48 -41 1 -15 4
-30 7 -32 2 -3 30 1 61 7 49 10 58 16 72 45 12 26 13 41 5 71 -5 22 -10 32
-11 23z"/>
<path d="M1935 3543 c-91 -48 -125 -101 -125 -191 0 -99 28 -151 109 -204 77
-49 167 -34 245 40 42 41 86 123 86 163 0 71 -58 152 -135 189 -50 24 -138 26
-180 3z m127 -32 c19 -11 38 -17 42 -14 7 8 34 -15 48 -41 10 -20 10 -20 -7
-6 -17 14 -18 13 -12 -18 6 -30 5 -32 -14 -21 -11 6 -27 8 -35 5 -8 -3 -17 1
-20 9 -4 8 -18 15 -33 14 -21 0 -23 -2 -7 -8 10 -4 30 -25 45 -46 26 -38 40
-45 124 -62 29 -6 38 -23 11 -23 -9 0 -47 -19 -85 -42 -50 -32 -68 -49 -71
-68 -5 -39 -32 -31 -39 13 -7 45 -4 42 -54 53 -35 9 -40 13 -43 41 -2 23 3 36
23 51 26 21 70 72 62 72 -2 0 -19 -13 -37 -28 -50 -44 -105 -26 -63 20 9 10
14 21 10 24 -3 3 -17 -12 -31 -33 -28 -40 -36 -30 -12 15 20 38 54 68 106 91
55 25 48 25 92 2z m-148 -158 c-5 -5 -12 -12 -15 -16 -3 -5 -9 -2 -12 7 -5 12
0 16 15 16 12 0 17 -3 12 -7z"/>
<path d="M2055 3080 c-27 -7 -28 -8 -5 -8 14 0 34 3 45 8 25 11 2 11 -40 0z"/>
<path d="M2785 3551 c-121 -58 -173 -174 -126 -283 35 -82 149 -156 219 -143
129 24 204 135 182 269 -12 72 -44 116 -105 145 -67 32 -122 36 -170 12z m143
-44 c10 -9 24 -17 31 -17 6 0 14 -7 17 -15 4 -8 14 -15 25 -15 22 0 39 -28 39
-64 0 -22 -5 -25 -47 -31 -78 -11 -79 -14 -11 -29 53 -12 59 -72 10 -97 -15
-7 -46 -30 -69 -51 -49 -43 -53 -44 -109 -19 -53 24 -59 35 -29 49 27 12 31
31 15 60 -5 9 -14 29 -19 43 -7 19 -20 30 -48 37 l-38 10 48 1 c35 1 47 5 47
16 0 17 -13 19 -38 6 -9 -4 -32 -11 -49 -14 -30 -6 -33 -4 -33 19 0 30 81 121
123 139 34 14 104 -1 135 -28z m-194 -173 c8 -3 20 -22 27 -42 10 -31 9 -37
-6 -48 -11 -8 -14 -18 -9 -26 6 -9 0 -8 -16 3 -30 19 -64 83 -56 104 6 15 33
19 60 9z"/>
<path d="M2870 3348 c0 -34 11 -68 21 -68 10 0 12 50 3 74 -9 24 -24 19 -24
-6z"/>
<path d="M8260 3513 c0 -22 2 -25 10 -13 13 20 13 40 0 40 -5 0 -10 -12 -10
-27z"/>
<path d="M7892 3560 c0 -14 2 -19 5 -12 2 6 2 18 0 25 -3 6 -5 1 -5 -13z"/>
<path d="M5400 2745 c-7 -8 -21 -15 -31 -15 -10 0 -20 -3 -22 -7 -3 -5 17 -6
44 -5 44 4 48 6 38 23 -12 23 -13 23 -29 4z"/>
<path d="M5524 2710 c-22 -9 -39 -28 -32 -35 2 -2 26 7 53 20 39 19 45 24 25
24 -14 0 -35 -4 -46 -9z"/>
<path d="M5383 2594 c-21 -9 -15 -49 10 -72 23 -22 24 -22 41 -3 10 11 16 31
14 48 -2 22 -9 28 -28 30 -14 1 -31 -1 -37 -3z"/>
<path d="M4477 2779 l-98 -50 29 -33 c16 -19 35 -48 43 -65 8 -17 18 -31 22
-31 5 0 31 12 58 28 l49 27 0 88 c0 48 -1 87 -2 86 -2 0 -47 -22 -101 -50z
m-17 -69 c-20 -13 -53 -13 -45 0 3 6 18 10 33 10 21 0 24 -2 12 -10z"/>
<path d="M4604 2695 c-1 -135 -1 -135 20 -122 21 14 38 65 18 53 -6 -4 -13 -2
-17 4 -4 6 6 10 24 10 21 0 31 -5 31 -15 0 -26 -60 -83 -106 -101 l-45 -17 22
-23 c17 -18 24 -20 37 -11 23 19 95 90 112 112 84 111 96 125 113 125 5 0 -7
-19 -26 -42 -18 -24 -54 -73 -80 -110 -26 -36 -63 -79 -82 -95 l-35 -29 7 -81
6 -81 109 57 108 56 15 50 c31 105 11 297 -33 312 -10 3 -55 23 -101 44 -46
22 -87 39 -90 39 -3 0 -6 -61 -7 -135z m221 -134 c-6 -5 -28 -11 -50 -15 -39
-6 -39 -6 -15 8 27 16 81 22 65 7z m-33 -102 c-4 -11 -30 -34 -57 -50 -28 -17
-62 -38 -77 -47 -15 -9 -30 -24 -32 -32 -3 -8 -4 -6 -3 5 1 12 22 33 52 52 28
17 66 45 85 62 42 36 41 36 32 10z"/>
<path d="M4356 2695 c-13 -53 -17 -233 -6 -274 10 -37 16 -44 73 -69 34 -16
81 -41 104 -55 24 -15 45 -27 48 -27 8 0 6 71 -4 111 -4 20 -29 62 -55 93 -25
32 -64 92 -85 134 -22 42 -46 86 -54 96 -13 18 -14 18 -21 -9z m104 -220 c10
-13 9 -15 -8 -15 -15 0 -20 5 -16 15 4 8 7 15 9 15 1 0 8 -7 15 -15z m16 -71
c10 -8 13 -13 7 -9 -7 3 -32 10 -55 14 l-43 9 36 1 c19 1 44 -6 55 -15z"/>
<path d="M4530 2593 c-22 -28 -22 -46 1 -51 26 -5 48 21 42 51 -7 34 -16 34
-43 0z"/>
<path d="M3655 2802 c-73 -25 -110 -55 -139 -114 -44 -88 -26 -238 37 -295 42
-39 124 -73 175 -73 59 0 159 46 196 91 49 58 71 185 42 252 -20 48 -95 111
-160 136 -68 25 -86 26 -151 3z m70 -22 c-4 -6 6 -10 22 -11 98 -2 173 -70
190 -172 12 -78 -58 -186 -144 -222 -53 -22 -78 -19 -156 22 -63 34 -72 42
-96 93 -36 76 -35 133 4 195 35 57 77 85 129 87 20 1 39 5 42 10 3 4 7 8 10 8
3 0 2 -4 -1 -10z"/>
<path d="M3632 2739 c-38 -11 -98 -87 -108 -135 -6 -34 22 -111 54 -148 26
-29 140 -78 165 -70 72 21 147 95 167 164 13 44 -19 118 -71 165 -37 33 -43
35 -107 34 -37 0 -82 -5 -100 -10z m68 -38 c18 -34 12 -49 -22 -56 -18 -4 -36
-13 -40 -19 -6 -8 -8 -7 -8 2 0 6 -7 12 -16 12 -26 0 -9 -60 25 -92 16 -15 32
-37 36 -48 8 -26 22 -17 40 26 11 28 19 35 37 32 20 -3 23 -10 26 -58 3 -52
-11 -100 -30 -100 -18 0 -126 103 -147 140 -24 43 -26 70 -8 120 19 54 25 60
62 60 24 0 38 -6 45 -19z m145 -1 c7 -11 -71 -70 -92 -70 -24 0 -14 28 20 54
33 27 61 33 72 16z"/>
<path d="M1957 2816 c-105 -29 -171 -105 -184 -213 -7 -66 10 -116 60 -171
100 -108 230 -114 346 -16 93 78 107 198 37 302 -56 83 -165 124 -259 98z m86
-85 c9 -35 -4 -61 -29 -61 -15 0 -18 38 -8 78 9 31 26 23 37 -17z m167 -75 c0
-14 -2 -14 -255 -31 -47 -3 -64 -2 -50 4 16 8 9 10 -30 10 -32 1 -46 4 -39 11
5 5 86 11 179 13 94 1 176 4 183 5 6 1 12 -4 12 -12z m-162 -46 c167 1 172 1
172 -19 0 -20 -5 -21 -190 -21 l-190 0 0 26 c0 21 4 25 18 19 9 -4 95 -6 190
-5z m172 -79 c0 -13 -81 -21 -214 -21 -124 0 -166 6 -166 21 0 5 86 9 190 9
105 0 190 -4 190 -9z m-174 -53 c7 -10 -20 -38 -38 -38 -4 0 -8 11 -8 25 0 18
5 25 19 25 11 0 23 -5 27 -12z"/>
<path d="M8548 8438 c14 -15 25 -19 32 -12 6 6 -1 14 -22 22 l-32 12 22 -22z"/>
<path d="M8721 8294 c14 -16 36 -40 48 -54 13 -14 44 -54 69 -90 26 -36 49
-67 53 -70 3 -3 31 -52 62 -110 95 -182 158 -405 176 -632 11 -130 21 -1736
21 -3239 1 -859 0 -899 -20 -1001 -38 -199 -85 -329 -175 -494 -108 -196 -228
-324 -419 -449 -61 -40 -148 -91 -193 -114 -154 -79 -398 -155 -598 -186 -56
-9 -68 -13 -41 -14 60 -2 239 27 330 54 88 25 259 91 330 126 22 12 100 58
171 102 105 65 150 101 236 188 59 59 121 128 139 153 31 43 50 57 50 37 0
-17 -160 -209 -232 -277 -133 -126 -362 -264 -555 -334 -48 -17 -158 -50 -243
-71 -85 -22 -155 -41 -155 -42 -1 -1 -8 -53 -17 -115 -11 -74 -22 -118 -31
-125 -9 -7 -17 -23 -19 -37 -3 -22 -9 -26 -58 -32 -137 -16 -750 -6 -683 11
21 6 21 6 3 43 -18 37 -25 67 -38 170 -7 53 -6 57 13 61 80 13 -619 22 -1750
22 -1263 -1 -1619 -7 -1568 -26 18 -7 21 -14 18 -46 -5 -44 -68 -168 -90 -177
-8 -3 -15 -12 -15 -21 0 -8 -7 -15 -16 -15 -8 0 -13 -4 -10 -9 9 -15 -79 -21
-283 -20 -189 0 -249 7 -223 23 14 8 2 38 -27 68 -33 35 -41 48 -41 67 0 11
-4 23 -10 26 -5 3 -10 19 -10 35 0 16 -4 32 -10 35 -5 3 -10 14 -10 25 0 25
-19 30 -123 30 -270 0 -531 34 -649 83 -18 8 -50 17 -70 21 -23 4 -38 13 -38
21 0 22 -3 23 195 -30 98 -26 108 -27 440 -29 187 -2 295 -2 240 0 -232 8
-498 25 -581 39 -179 29 -414 111 -563 197 -104 60 -252 178 -327 262 -131
145 -255 374 -310 571 -12 44 -23 76 -23 70 -2 -26 37 -185 76 -310 6 -18 5
-18 -10 -6 -19 15 -60 142 -78 235 -5 31 -16 128 -23 214 -10 111 -14 137 -15
89 -2 -131 52 -682 79 -793 10 -45 30 -105 43 -135 41 -90 56 -129 50 -129 -3
0 2 -9 12 -20 10 -11 14 -20 9 -20 -5 0 -4 -4 2 -8 7 -4 19 -23 28 -42 9 -19
29 -55 46 -80 48 -73 53 -83 41 -76 -6 4 -11 3 -11 -3 0 -5 9 -13 21 -16 12
-4 18 -13 15 -20 -3 -8 3 -17 15 -20 10 -4 19 -14 19 -24 0 -10 18 -36 39 -59
27 -28 39 -49 37 -65 -2 -17 2 -24 13 -23 9 1 15 -6 15 -16 -1 -10 2 -15 7
-12 5 3 9 -2 9 -10 0 -9 5 -16 10 -16 6 0 9 -5 8 -12 -2 -6 8 -17 20 -24 15
-7 20 -14 13 -18 -6 -4 -11 -12 -11 -17 0 -6 4 -8 9 -4 6 3 17 -10 27 -30 9
-19 23 -35 30 -35 8 0 14 -7 14 -16 0 -9 5 -12 13 -8 7 5 6 0 -3 -11 -14 -17
-13 -18 2 -12 10 3 20 2 23 -4 4 -5 11 -6 17 -3 7 5 9 1 5 -9 -4 -10 -1 -17 5
-17 6 0 9 -3 6 -6 -7 -6 44 -60 53 -57 4 1 5 -7 2 -18 -4 -15 9 -33 51 -72 31
-29 56 -58 56 -64 0 -6 10 -13 22 -17 22 -5 22 -6 3 -20 -11 -8 -17 -18 -12
-22 4 -4 7 -2 7 4 0 7 7 12 15 12 8 0 15 -5 15 -10 0 -6 3 -9 7 -8 5 2 10 -1
12 -7 2 -5 11 -15 20 -22 11 -9 12 -12 3 -13 -7 0 -10 -5 -7 -10 4 -6 10 -8
15 -5 4 3 13 -2 19 -9 10 -11 8 -15 -6 -19 -10 -3 -4 -5 12 -4 24 2 29 -2 27
-15 -3 -16 8 -23 30 -19 4 0 5 -6 2 -13 -3 -9 3 -17 15 -21 23 -7 28 -21 10
-27 -7 -2 -5 -9 5 -17 14 -12 16 -12 10 3 -3 9 -2 16 4 16 6 0 15 -13 21 -30
5 -16 17 -30 25 -30 9 0 16 -5 16 -10 0 -6 11 -21 25 -34 14 -13 25 -26 25
-30 0 -18 54 -76 66 -72 7 3 16 1 19 -4 3 -5 -3 -11 -12 -13 -11 -3 -8 -5 10
-6 20 -1 27 -6 27 -22 0 -15 5 -19 15 -15 8 3 15 1 15 -4 0 -6 9 -10 19 -10
11 0 26 -7 35 -15 8 -8 19 -15 24 -15 6 0 13 -6 15 -12 4 -10 8 -9 16 2 9 13
11 13 11 -1 0 -9 7 -22 15 -29 8 -7 15 -21 15 -31 0 -12 7 -19 19 -19 33 0 51
-11 51 -31 0 -14 7 -19 25 -19 20 0 27 -6 32 -30 4 -21 11 -30 24 -30 11 0 19
-4 19 -9 0 -5 27 -11 60 -13 57 -3 60 -2 60 20 0 22 23 31 34 13 3 -5 14 -11
24 -13 16 -4 19 1 20 26 0 17 6 32 11 34 15 5 14 39 -1 45 -7 3 -2 6 11 6 16
1 21 6 18 15 -4 9 3 16 19 20 13 4 24 13 24 21 0 8 5 15 10 15 6 0 10 9 10 20
0 11 4 20 8 20 5 0 9 17 10 37 1 20 5 39 10 42 18 12 20 39 6 67 -14 26 -14
29 8 46 l23 18 -22 0 c-12 0 -25 -5 -29 -11 -5 -8 -10 -6 -16 5 -5 9 -6 21 -3
26 3 6 -6 33 -22 60 -22 41 -25 52 -14 59 8 5 9 11 3 15 -6 3 -12 0 -15 -6
-19 -55 -37 117 -21 209 14 77 26 97 71 109 13 3 23 9 23 13 0 29 242 51 366
33 39 -5 98 -22 130 -38 53 -24 62 -33 82 -78 24 -56 27 -76 12 -76 -5 0 -10
-5 -10 -11 0 -5 3 -8 8 -6 8 6 7 -93 -3 -130 -3 -14 -10 -21 -17 -17 -7 4 -8
3 -4 -4 4 -7 17 -12 29 -12 20 0 20 0 2 -14 -11 -8 -23 -12 -27 -10 -4 2 -9 0
-13 -6 -3 -5 1 -10 9 -10 18 0 21 -11 7 -26 -5 -5 -12 -19 -16 -31 -5 -19 -2
-23 14 -23 12 0 21 -4 21 -10 0 -5 -7 -10 -15 -10 -8 0 -15 -5 -15 -12 0 -6 3
-8 7 -5 3 4 12 -1 20 -11 12 -16 13 -16 6 2 -4 13 -2 17 8 14 8 -2 15 -17 17
-31 2 -15 9 -27 17 -27 7 0 15 -10 17 -22 2 -13 13 -27 25 -33 12 -5 30 -26
39 -47 9 -21 23 -38 31 -38 7 0 13 -9 13 -20 0 -13 7 -20 20 -20 11 0 20 -5
20 -11 0 -7 11 -9 30 -6 19 4 34 1 44 -9 8 -8 21 -13 28 -12 8 2 14 -8 16 -24
2 -19 8 -25 18 -21 8 3 23 -2 33 -11 10 -9 21 -13 24 -9 4 3 7 -3 7 -15 0 -19
6 -22 41 -22 37 0 40 -2 34 -22 -5 -18 -4 -20 4 -8 7 10 11 11 11 3 0 -7 7
-13 15 -13 8 0 15 5 15 10 0 6 18 10 40 10 22 0 40 -4 40 -9 0 -5 6 -9 13 -8
6 0 52 -1 100 -1 83 -2 88 -3 82 -22 -5 -16 -2 -20 19 -20 19 0 26 -5 26 -20
0 -13 7 -20 20 -20 11 0 20 -7 20 -15 0 -12 15 -15 83 -13 76 2 77 2 20 5 -53
3 -63 7 -63 22 0 25 26 34 44 16 10 -10 37 -15 85 -15 56 0 71 -3 71 -15 0
-11 11 -15 40 -15 29 0 40 4 40 15 0 13 26 15 174 15 158 0 175 -2 179 -17 4
-17 5 -17 6 0 1 23 23 22 41 -3 13 -18 26 -20 127 -20 69 0 113 -4 113 -10 0
-5 9 -10 20 -10 11 0 20 5 20 10 0 6 9 10 20 10 11 0 20 5 20 10 0 6 9 10 20
10 11 0 20 -4 20 -10 0 -6 60 -10 160 -10 153 0 160 1 160 20 0 19 7 20 100
20 60 0 100 -4 100 -10 0 -5 9 -10 20 -10 11 0 20 -4 20 -10 0 -5 9 -10 20
-10 13 0 20 7 20 20 0 19 20 27 60 21 43 -6 175 1 178 9 2 6 12 10 23 10 10 0
19 5 19 10 0 6 9 10 20 10 11 0 20 5 20 10 0 6 18 10 40 10 29 0 40 4 40 15 0
20 45 65 65 65 8 0 15 5 15 10 0 6 9 10 20 10 11 0 20 5 20 10 0 6 9 10 20 10
11 0 20 7 20 15 0 11 11 15 40 15 22 0 40 3 40 8 0 4 19 6 41 4 29 -3 40 -1
35 7 -4 6 -24 12 -44 12 -24 1 -13 5 34 11 66 9 72 11 72 34 0 13 -6 24 -14
24 -11 0 -11 5 -2 25 6 14 15 25 20 25 5 0 6 9 3 20 -7 21 10 29 18 8 2 -7 8
-9 13 -5 7 7 -5 20 -27 29 -4 2 -10 14 -14 27 -7 22 -5 23 21 17 l29 -7 -27
26 c-29 26 -37 55 -17 55 8 0 8 5 -1 15 -10 12 -10 15 1 15 8 1 2 8 -13 16
-32 17 -37 28 -9 19 11 -3 21 0 24 9 4 10 0 12 -14 9 -14 -4 -19 0 -19 15 0
11 -6 24 -13 30 -10 9 -12 37 -9 114 3 92 6 107 30 142 15 22 35 41 44 44 10
2 18 8 18 12 0 4 25 19 55 34 65 32 158 45 310 46 366 0 462 -59 453 -278 -2
-50 0 -88 4 -86 13 8 9 -9 -7 -26 -12 -14 -12 -20 0 -43 11 -21 11 -33 2 -57
-9 -24 -9 -35 2 -51 9 -15 10 -24 2 -32 -13 -13 -15 -47 -2 -47 5 0 11 4 13
10 2 6 8 6 18 0 13 -9 13 -10 0 -10 -8 0 -21 -9 -28 -20 -13 -21 -3 -27 15 -9
8 8 13 8 17 0 4 -6 2 -11 -4 -11 -7 0 -10 -6 -7 -12 2 -7 -3 -18 -12 -25 -14
-11 -13 -13 9 -13 14 -1 19 -4 12 -7 -10 -4 -8 -11 9 -29 12 -13 27 -24 31
-24 14 0 38 -27 38 -42 0 -19 21 -38 42 -38 10 0 18 -4 18 -10 0 -5 6 -10 14
-10 8 0 18 -9 21 -20 3 -11 10 -20 15 -20 5 0 12 -9 15 -20 3 -11 12 -20 19
-20 8 0 19 -13 26 -30 7 -16 19 -30 26 -30 8 0 14 -4 14 -10 0 -5 9 -10 20
-10 13 0 20 -7 20 -20 0 -13 -7 -20 -20 -20 -13 0 -20 -7 -20 -20 0 -17 7 -20
40 -20 33 0 40 -3 40 -20 0 -13 7 -20 20 -20 13 0 20 -7 20 -20 0 -18 7 -20
60 -20 l60 0 0 -40 0 -40 40 0 c33 0 40 -3 40 -20 0 -13 -7 -20 -20 -20 -17 0
-20 -7 -20 -40 l0 -40 920 0 920 0 0 2938 c0 2104 -3 2933 -11 2922 -9 -12
-10 -11 -4 5 4 11 9 41 11 66 3 35 1 46 -10 46 -11 0 -12 -6 -5 -26 l9 -26
-20 25 c-17 21 -21 23 -29 10 -6 -8 -13 -11 -18 -6 -4 4 0 12 10 17 12 7 16
17 11 31 -4 12 -1 24 7 29 7 4 10 12 5 16 -5 4 -11 2 -13 -4 -6 -18 -23 -16
-23 2 0 8 -7 15 -15 15 -19 0 -19 19 1 41 10 11 12 19 5 24 -6 3 -11 1 -11 -4
0 -15 -27 -14 -33 2 -3 6 -6 3 -7 -8 -1 -20 -1 -20 -15 -1 -8 11 -18 17 -21
13 -14 -14 19 -38 44 -32 23 6 23 6 5 -19 -17 -24 -34 -34 -32 -18 6 38 -14
42 -49 10 l-25 -23 14 23 c8 12 18 22 24 22 5 0 3 5 -5 10 -8 5 -10 10 -4 10
17 0 24 38 9 44 -22 8 -57 -5 -51 -20 3 -8 1 -14 -4 -14 -6 0 -10 6 -10 14 0
7 -7 19 -15 26 -8 7 -12 16 -9 21 3 5 -1 9 -10 9 -8 0 -16 5 -18 11 -2 6 -16
12 -30 12 -21 0 -24 2 -15 12 7 8 16 10 22 4 5 -5 16 -9 25 -9 11 1 10 5 -7
19 -12 10 -20 21 -17 24 3 3 -4 8 -15 12 -24 7 -28 25 -7 25 8 0 18 4 21 10 4
6 -3 6 -21 0 -15 -6 -29 -8 -32 -5 -3 3 -2 5 3 5 4 0 2 7 -5 15 -7 9 -10 18
-7 22 12 12 -28 32 -52 26 -17 -4 -22 -2 -17 6 4 6 2 11 -4 11 -7 0 -23 9 -37
20 -14 11 -21 20 -14 20 6 0 11 5 11 10 0 6 -7 10 -16 10 -10 0 -14 5 -10 15
4 12 0 14 -19 9 -29 -7 -32 3 -7 23 16 13 16 14 -3 9 -11 -3 -27 -1 -35 4 -13
9 -13 11 0 19 8 5 18 7 24 4 5 -3 6 -1 2 5 -5 8 -15 8 -32 2 -33 -13 -54 -13
-54 1 0 6 7 9 15 5 22 -8 18 11 -6 27 -15 11 -17 16 -7 21 10 5 10 7 1 12 -7
3 -13 12 -13 20 0 8 -4 14 -10 14 -5 0 -10 -7 -10 -16 0 -9 -6 -14 -12 -11 -7
2 -12 10 -10 17 2 8 -4 11 -18 7 -16 -4 -20 0 -20 17 0 31 -9 37 -32 25 -14
-8 -23 -8 -31 0 -8 8 -8 11 1 11 7 0 12 4 12 10 0 5 -6 9 -12 7 -7 -1 -12 6
-12 16 2 19 -7 22 -22 7 -6 -6 -19 -8 -28 -4 -14 5 -15 9 -4 15 9 6 7 9 -9 9
-24 0 -33 20 -10 20 6 1 -1 7 -18 14 -21 9 -34 10 -43 3 -10 -8 -11 -4 -2 18
9 25 9 26 -5 15 -11 -9 -18 -10 -28 -1 -8 6 -16 8 -20 5 -3 -3 -12 3 -19 15
-16 26 -25 27 -31 4 -3 -10 -5 9 -6 42 -16 547 -29 655 -105 882 -47 139 -132
306 -187 364 -18 19 -52 59 -76 89 -25 30 -59 66 -76 79 l-32 25 26 -30z m599
-1518 c0 -3 -4 -8 -10 -11 -5 -3 -10 -1 -10 4 0 6 5 11 10 11 6 0 10 -2 10 -4z
m90 -86 c0 -5 -4 -10 -10 -10 -5 0 -10 5 -10 10 0 6 5 10 10 10 6 0 10 -4 10
-10z m230 -204 c0 -3 -4 -8 -10 -11 -5 -3 -10 -1 -10 4 0 6 5 11 10 11 6 0 10
-2 10 -4z m103 -121 c-3 -9 -8 -14 -10 -11 -3 3 -2 9 2 15 9 16 15 13 8 -4z
m80 -19 c4 -10 1 -13 -9 -9 -15 6 -19 23 -5 23 5 0 11 -7 14 -14z m217 -210
c0 -3 -4 -8 -10 -11 -5 -3 -10 -1 -10 4 0 6 5 11 10 11 6 0 10 -2 10 -4z m90
-91 c0 -8 9 -20 20 -27 23 -15 27 -38 6 -38 -8 0 -17 12 -20 26 -5 20 -11 24
-29 20 -12 -3 -16 -3 -9 0 6 3 12 12 12 20 0 8 5 14 10 14 6 0 10 -7 10 -15z
m75 -135 c3 -5 1 -10 -4 -10 -6 0 -11 5 -11 10 0 6 2 10 4 10 3 0 8 -4 11 -10z
m-993 -2609 c7 -57 18 -109 24 -116 15 -15 7 -55 -11 -55 -8 0 -18 -33 -28
-92 l-16 -93 4 139 c3 77 6 194 6 260 1 67 4 108 5 91 2 -16 9 -77 16 -134z
m-55 -253 c-3 -8 -6 -5 -6 6 -1 11 2 17 5 13 3 -3 4 -12 1 -19z m-10 -95 c-3
-10 -5 -4 -5 12 0 17 2 24 5 18 2 -7 2 -21 0 -30z m-7883 -458 l28 -50 -26 30
c-14 17 -30 43 -36 60 -14 38 0 23 34 -40z m82 -122 c15 -20 23 -33 16 -29
-13 8 -56 66 -49 66 3 0 17 -17 33 -37z m449 -1083 c3 -5 1 -10 -4 -10 -6 0
-11 5 -11 10 0 6 2 10 4 10 3 0 8 -4 11 -10z m1805 -370 c0 -5 -5 -10 -11 -10
-5 0 -7 5 -4 10 3 6 8 10 11 10 2 0 4 -4 4 -10z m-1293 -176 c-3 -3 -12 -4
-19 -1 -8 3 -5 6 6 6 11 1 17 -2 13 -5z m373 -294 c0 -5 -4 -10 -10 -10 -5 0
-10 5 -10 10 0 6 5 10 10 10 6 0 10 -4 10 -10z"/>
<path d="M10135 8180 c-3 -5 -1 -10 4 -10 6 0 11 5 11 10 0 6 -2 10 -4 10 -3
0 -8 -4 -11 -10z"/>
<path d="M10216 7967 c3 -10 9 -15 12 -12 3 3 0 11 -7 18 -10 9 -11 8 -5 -6z"/>
<path d="M9185 6889 c-4 -6 -5 -12 -2 -15 2 -3 7 2 10 11 7 17 1 20 -8 4z"/>
<path d="M9730 6466 c0 -2 7 -9 15 -16 13 -11 14 -10 9 4 -5 14 -24 23 -24 12z"/>
<path d="M9875 6340 c-3 -5 -2 -10 4 -10 5 0 13 5 16 10 3 6 2 10 -4 10 -5 0
-13 -4 -16 -10z"/>
<path d="M9970 6320 c0 -5 5 -10 11 -10 5 0 7 5 4 10 -3 6 -8 10 -11 10 -2 0
-4 -4 -4 -10z"/>
<path d="M9950 6229 c0 -17 27 -39 49 -39 12 0 21 5 21 10 0 6 -3 9 -7 9 -25
-4 -43 3 -43 16 0 8 -4 15 -10 15 -5 0 -10 -5 -10 -11z"/>
<path d="M10030 6219 c0 -5 5 -7 10 -4 6 3 10 8 10 11 0 2 -4 4 -10 4 -5 0
-10 -5 -10 -11z"/>
<path d="M10200 6180 c-9 -6 -10 -10 -3 -10 6 0 15 5 18 10 8 12 4 12 -15 0z"/>
<path d="M9976 6167 c3 -10 9 -15 12 -12 3 3 0 11 -7 18 -10 9 -11 8 -5 -6z"/>
<path d="M10040 6175 c0 -7 30 -13 34 -7 3 4 -4 9 -15 9 -10 1 -19 0 -19 -2z"/>
<path d="M10180 6140 c0 -5 5 -10 11 -10 5 0 7 5 4 10 -3 6 -8 10 -11 10 -2 0
-4 -4 -4 -10z"/>
<path d="M10170 6074 c0 -8 5 -12 10 -9 6 3 10 10 10 16 0 5 -4 9 -10 9 -5 0
-10 -7 -10 -16z"/>
<path d="M10208 6020 c-21 -20 -15 -30 13 -23 20 6 23 12 11 29 -5 8 -12 6
-24 -6z"/>
<path d="M1043 5475 c0 -22 2 -30 4 -17 2 12 2 30 0 40 -3 9 -5 -1 -4 -23z"/>
<path d="M1043 4970 c0 -47 2 -66 4 -42 2 23 2 61 0 85 -2 23 -4 4 -4 -43z"/>
<path d="M1043 4520 c0 -47 2 -66 4 -42 2 23 2 61 0 85 -2 23 -4 4 -4 -43z"/>
<path d="M1044 4270 c0 -52 1 -74 3 -47 2 26 2 68 0 95 -2 26 -3 4 -3 -48z"/>
<path d="M1043 4130 c0 -25 2 -35 4 -22 2 12 2 32 0 45 -2 12 -4 2 -4 -23z"/>
<path d="M1044 3905 c0 -93 2 -133 3 -88 2 45 2 122 0 170 -1 48 -3 12 -3 -82z"/>
<path d="M1042 3705 c0 -16 2 -22 5 -12 2 9 2 23 0 30 -3 6 -5 -1 -5 -18z"/>
<path d="M1038 3595 c-5 -38 -7 -119 -7 -180 l2 -110 8 95 c5 52 8 133 7 180
l-3 85 -7 -70z"/>
<path d="M3895 1840 c-344 -5 -353 -5 -200 -13 185 -10 2926 -8 3180 2 159 6
144 7 -215 14 -397 8 -2128 6 -2765 -3z"/>
<path d="M4648 1793 c23 -2 59 -2 80 0 20 2 1 4 -43 4 -44 0 -61 -2 -37 -4z"/>
<path d="M2020 976 c0 -2 7 -7 16 -10 8 -3 12 -2 9 4 -6 10 -25 14 -25 6z"/>
<path d="M3018 808 c9 -9 15 -9 24 0 9 9 7 12 -12 12 -19 0 -21 -3 -12 -12z"/>
<path d="M6997 733 c-4 -3 -7 -11 -7 -17 0 -6 5 -5 12 2 6 6 9 14 7 17 -3 3
-9 2 -12 -2z"/>
<path d="M6990 680 c0 -5 5 -10 11 -10 5 0 7 5 4 10 -3 6 -8 10 -11 10 -2 0
-4 -4 -4 -10z"/>
</g>
</svg>
